  0
SECTION
  2
HEADER
  9
$ACADVER
  1
AC1015
  9
$ACADMAINTVER
 70
     6
  9
$DWGCODEPAGE
  3
ANSI_1252
  9
$INSBASE
 10
0.0
 20
0.0
 30
0.0
  9
$EXTMIN
 10
-1.1394970842
 20
-1.6543573881
 30
0.0
  9
$EXTMAX
 10
1.6734006549
 20
1.4094221394
 30
0.0
  9
$LIMMIN
 10
0.0
 20
0.0
  9
$LIMMAX
 10
12.0
 20
9.0
  9
$ORTHOMODE
 70
     0
  9
$REGENMODE
 70
     1
  9
$FILLMODE
 70
     1
  9
$QTEXTMODE
 70
     0
  9
$MIRRTEXT
 70
     1
  9
$LTSCALE
 40
1.0
  9
$ATTMODE
 70
     1
  9
$TEXTSIZE
 40
0.125
  9
$TRACEWID
 40
0.05
  9
$TEXTSTYLE
  7
Standard
  9
$CLAYER
  8
0
  9
$CELTYPE
  6
ByLayer
  9
$CECOLOR
 62
   256
  9
$CELTSCALE
 40
1.0
  9
$DISPSILH
 70
     0
  9
$DIMSCALE
 40
1.0
  9
$DIMASZ
 40
0.13
  9
$DIMEXO
 40
0.05
  9
$DIMDLI
 40
0.38
  9
$DIMRND
 40
0.0
  9
$DIMDLE
 40
0.0
  9
$DIMEXE
 40
0.125
  9
$DIMTP
 40
0.0
  9
$DIMTM
 40
0.0
  9
$DIMTXT
 40
0.125
  9
$DIMCEN
 40
0.09
  9
$DIMTSZ
 40
0.0
  9
$DIMTOL
 70
     0
  9
$DIMLIM
 70
     0
  9
$DIMTIH
 70
     1
  9
$DIMTOH
 70
     1
  9
$DIMSE1
 70
     0
  9
$DIMSE2
 70
     0
  9
$DIMTAD
 70
     0
  9
$DIMZIN
 70
     0
  9
$DIMBLK
  1

  9
$DIMASO
 70
     1
  9
$DIMSHO
 70
     1
  9
$DIMPOST
  1

  9
$DIMAPOST
  1

  9
$DIMALT
 70
     0
  9
$DIMALTD
 70
     2
  9
$DIMALTF
 40
25.4
  9
$DIMLFAC
 40
1.0
  9
$DIMTOFL
 70
     0
  9
$DIMTVP
 40
0.0
  9
$DIMTIX
 70
     0
  9
$DIMSOXD
 70
     0
  9
$DIMSAH
 70
     0
  9
$DIMBLK1
  1

  9
$DIMBLK2
  1

  9
$DIMSTYLE
  2
Standard
  9
$DIMCLRD
 70
     0
  9
$DIMCLRE
 70
     0
  9
$DIMCLRT
 70
     0
  9
$DIMTFAC
 40
1.0
  9
$DIMGAP
 40
0.06
  9
$DIMJUST
 70
     0
  9
$DIMSD1
 70
     0
  9
$DIMSD2
 70
     0
  9
$DIMTOLJ
 70
     1
  9
$DIMTZIN
 70
     0
  9
$DIMALTZ
 70
     0
  9
$DIMALTTZ
 70
     0
  9
$DIMUPT
 70
     0
  9
$DIMDEC
 70
     2
  9
$DIMTDEC
 70
     2
  9
$DIMALTU
 70
     2
  9
$DIMALTTD
 70
     2
  9
$DIMTXSTY
  7
Standard
  9
$DIMAUNIT
 70
     0
  9
$DIMADEC
 70
     2
  9
$DIMALTRND
 40
0.0
  9
$DIMAZIN
 70
     0
  9
$DIMDSEP
 70
    46
  9
$DIMATFIT
 70
     3
  9
$DIMFRAC
 70
     0
  9
$DIMLDRBLK
  1

  9
$DIMLUNIT
 70
     2
  9
$DIMLWD
 70
    -2
  9
$DIMLWE
 70
    -2
  9
$DIMTMOVE
 70
     0
  9
$LUNITS
 70
     2
  9
$LUPREC
 70
     2
  9
$SKETCHINC
 40
0.1
  9
$FILLETRAD
 40
0.5
  9
$AUNITS
 70
     0
  9
$AUPREC
 70
     2
  9
$MENU
  1
.
  9
$ELEVATION
 40
0.0
  9
$PELEVATION
 40
0.0
  9
$THICKNESS
 40
0.0
  9
$LIMCHECK
 70
     0
  9
$CHAMFERA
 40
0.0
  9
$CHAMFERB
 40
0.0
  9
$CHAMFERC
 40
0.0
  9
$CHAMFERD
 40
0.0
  9
$SKPOLY
 70
     0
  9
$TDCREATE
 40
2457142.770398125
  9
$TDUCREATE
 40
2457142.978731459
  9
$TDUPDATE
 40
2457142.770436285
  9
$TDUUPDATE
 40
2457142.978769618
  9
$TDINDWG
 40
0.0000000116
  9
$TDUSRTIMER
 40
0.0000000116
  9
$USRTIMER
 70
     1
  9
$ANGBASE
 50
0.0
  9
$ANGDIR
 70
     0
  9
$PDMODE
 70
     0
  9
$PDSIZE
 40
-1.0
  9
$PLINEWID
 40
0.0
  9
$SPLFRAME
 70
     0
  9
$SPLINETYPE
 70
     6
  9
$SPLINESEGS
 70
     8
  9
$HANDSEED
  5
45A
  9
$SURFTAB1
 70
     6
  9
$SURFTAB2
 70
     6
  9
$SURFTYPE
 70
     6
  9
$SURFU
 70
     6
  9
$SURFV
 70
     6
  9
$UCSBASE
  2

  9
$UCSNAME
  2

  9
$UCSORG
 10
0.0
 20
0.0
 30
0.0
  9
$UCSXDIR
 10
1.0
 20
0.0
 30
0.0
  9
$UCSYDIR
 10
0.0
 20
1.0
 30
0.0
  9
$UCSORTHOREF
  2

  9
$UCSORTHOVIEW
 70
     0
  9
$UCSORGTOP
 10
0.0
 20
0.0
 30
0.0
  9
$UCSORGBOTTOM
 10
0.0
 20
0.0
 30
0.0
  9
$UCSORGLEFT
 10
0.0
 20
0.0
 30
0.0
  9
$UCSORGRIGHT
 10
0.0
 20
0.0
 30
0.0
  9
$UCSORGFRONT
 10
0.0
 20
0.0
 30
0.0
  9
$UCSORGBACK
 10
0.0
 20
0.0
 30
0.0
  9
$PUCSBASE
  2

  9
$PUCSNAME
  2

  9
$PUCSORG
 10
0.0
 20
0.0
 30
0.0
  9
$PUCSXDIR
 10
1.0
 20
0.0
 30
0.0
  9
$PUCSYDIR
 10
0.0
 20
1.0
 30
0.0
  9
$PUCSORTHOREF
  2

  9
$PUCSORTHOVIEW
 70
     0
  9
$PUCSORGTOP
 10
0.0
 20
0.0
 30
0.0
  9
$PUCSORGBOTTOM
 10
0.0
 20
0.0
 30
0.0
  9
$PUCSORGLEFT
 10
0.0
 20
0.0
 30
0.0
  9
$PUCSORGRIGHT
 10
0.0
 20
0.0
 30
0.0
  9
$PUCSORGFRONT
 10
0.0
 20
0.0
 30
0.0
  9
$PUCSORGBACK
 10
0.0
 20
0.0
 30
0.0
  9
$USERI1
 70
     0
  9
$USERI2
 70
     0
  9
$USERI3
 70
     0
  9
$USERI4
 70
     0
  9
$USERI5
 70
     0
  9
$USERR1
 40
0.0
  9
$USERR2
 40
0.0
  9
$USERR3
 40
0.0
  9
$USERR4
 40
0.0
  9
$USERR5
 40
0.0
  9
$WORLDVIEW
 70
     1
  9
$SHADEDGE
 70
     3
  9
$SHADEDIF
 70
    70
  9
$TILEMODE
 70
     1
  9
$MAXACTVP
 70
    64
  9
$PINSBASE
 10
0.0
 20
0.0
 30
0.0
  9
$PLIMCHECK
 70
     0
  9
$PEXTMIN
 10
-1.1394970842
 20
-1.6543573881
 30
0.0
  9
$PEXTMAX
 10
1.6734006549
 20
1.4094221394
 30
0.0
  9
$PLIMMIN
 10
-1.2352403499
 20
-1.7501005031
  9
$PLIMMAX
 10
2.9774567078
 20
1.5051654052
  9
$UNITMODE
 70
     0
  9
$VISRETAIN
 70
     1
  9
$PLINEGEN
 70
     0
  9
$PSLTSCALE
 70
     1
  9
$TREEDEPTH
 70
  3020
  9
$CMLSTYLE
  2
Standard
  9
$CMLJUST
 70
     0
  9
$CMLSCALE
 40
1.0
  9
$PROXYGRAPHICS
 70
     1
  9
$MEASUREMENT
 70
     0
  9
$CELWEIGHT
370
    -1
  9
$ENDCAPS
280
     0
  9
$JOINSTYLE
280
     0
  9
$LWDISPLAY
290
     1
  9
$INSUNITS
 70
     1
  9
$HYPERLINKBASE
  1

  9
$STYLESHEET
  1

  9
$XEDIT
290
     1
  9
$CEPSNTYPE
380
     0
  9
$PSTYLEMODE
290
     1
  9
$FINGERPRINTGUID
  2
{65CE01DF-4B0D-4811-9FFB-93BE51B8A982}
  9
$VERSIONGUID
  2
{FAEB1C32-E019-11D5-929B-00C0DF256EC4}
  9
$EXTNAMES
290
     1
  9
$PSVPSCALE
 40
0.0
  9
$OLESTARTUP
290
     0
  0
ENDSEC
  0
SECTION
  2
CLASSES
  0
CLASS
  1
ACDBDICTIONARYWDFLT
  2
AcDbDictionaryWithDefault
  3
ObjectDBX Classes
 90
        0
280
     0
281
     0
  0
CLASS
  1
VISUALSTYLE
  2
AcDbVisualStyle
  3
ObjectDBX Classes
 90
     4095
280
     0
281
     0
  0
CLASS
  1
MATERIAL
  2
AcDbMaterial
  3
ObjectDBX Classes
 90
     1153
280
     0
281
     0
  0
CLASS
  1
SCALE
  2
AcDbScale
  3
ObjectDBX Classes
 90
     1153
280
     0
281
     0
  0
CLASS
  1
SUN
  2
AcDbSun
  3
SCENEOE
 90
     1153
280
     0
281
     0
  0
CLASS
  1
ACDBPLACEHOLDER
  2
AcDbPlaceHolder
  3
ObjectDBX Classes
 90
        0
280
     0
281
     0
  0
CLASS
  1
LAYOUT
  2
AcDbLayout
  3
ObjectDBX Classes
 90
        0
280
     0
281
     0
  0
ENDSEC
  0
SECTION
  2
TABLES
  0
TABLE
  2
VPORT
  5
8
330
0
100
AcDbSymbolTable
 70
     1
  0
VPORT
  5
29
330
8
100
AcDbSymbolTableRecord
100
AcDbViewportTableRecord
  2
*Active
 70
     0
 10
0.0
 20
0.0
 11
1.0
 21
1.0
 12
0.2669517854
 22
-0.1224676243
 13
0.0
 23
0.0
 14
0.5
 24
0.5
 15
0.5
 25
0.5
 16
0.0
 26
0.0
 36
1.0
 17
0.0
 27
0.0
 37
0.0
 40
3.1250551181
 41
0.9181136285
 42
50.0
 43
0.0
 44
0.0
 50
0.0
 51
0.0
 71
     0
 72
   100
 73
     1
 74
     3
 75
     0
 76
     0
 77
     0
 78
     0
281
     0
 65
     1
110
0.0
120
0.0
130
0.0
111
1.0
121
0.0
131
0.0
112
0.0
122
1.0
132
0.0
 79
     0
146
0.0
  0
ENDTAB
  0
TABLE
  2
LTYPE
  5
5
330
0
100
AcDbSymbolTable
 70
     6
  0
LTYPE
  5
14
330
5
100
AcDbSymbolTableRecord
100
AcDbLinetypeTableRecord
  2
ByBlock
 70
     0
  3

 72
    65
 73
     0
 40
0.0
  0
LTYPE
  5
15
330
5
100
AcDbSymbolTableRecord
100
AcDbLinetypeTableRecord
  2
ByLayer
 70
     0
  3

 72
    65
 73
     0
 40
0.0
  0
LTYPE
  5
16
330
5
100
AcDbSymbolTableRecord
100
AcDbLinetypeTableRecord
  2
Continuous
 70
     0
  3
Solid line
 72
    65
 73
     0
 40
0.0
  0
LTYPE
  5
6A
330
5
100
AcDbSymbolTableRecord
100
AcDbLinetypeTableRecord
  2
HIDDEN
 70
     0
  3
Hidden __ __ __ __ __ __ __ __ __ __ __ __ __ __
 72
    65
 73
     2
 40
0.075
 49
0.05
 74
     0
 49
-0.025
 74
     0
  0
LTYPE
  5
6B
330
5
100
AcDbSymbolTableRecord
100
AcDbLinetypeTableRecord
  2
PHANTOM
 70
     0
  3
Phantom ______  __  __  ______  __  __  ______
 72
    65
 73
     6
 40
0.5
 49
0.25
 74
     0
 49
-0.05
 74
     0
 49
0.05
 74
     0
 49
-0.05
 74
     0
 49
0.05
 74
     0
 49
-0.05
 74
     0
  0
LTYPE
  5
6C
330
5
100
AcDbSymbolTableRecord
100
AcDbLinetypeTableRecord
  2
CENTER
 70
     0
  3
Center ____ _ ____ _ ____ _ ____ _ ____ _ ____
 72
    65
 73
     4
 40
0.4
 49
0.25
 74
     0
 49
-0.05
 74
     0
 49
0.05
 74
     0
 49
-0.05
 74
     0
  0
LTYPE
  5
6D
330
5
100
AcDbSymbolTableRecord
100
AcDbLinetypeTableRecord
  2
CENTERX2
 70
     0
  3
Center (2x) ________  __  ________  __  _____
 72
    65
 73
     4
 40
0.8
 49
0.5
 74
     0
 49
-0.1
 74
     0
 49
0.1
 74
     0
 49
-0.1
 74
     0
  0
LTYPE
  5
6E
330
5
100
AcDbSymbolTableRecord
100
AcDbLinetypeTableRecord
  2
DOT2
 70
     0
  3
Dot (.5x) ........................................
 72
    65
 73
     2
 40
0.025
 49
0.0
 74
     0
 49
-0.025
 74
     0
  0
ENDTAB
  0
TABLE
  2
LAYER
  5
2
330
0
100
AcDbSymbolTable
 70
     1
  0
LAYER
  5
10
330
2
100
AcDbSymbolTableRecord
100
AcDbLayerTableRecord
  2
0
 70
     0
 62
     7
  6
Continuous
370
    -3
390
F
  0
ENDTAB
  0
TABLE
  2
STYLE
  5
3
330
0
100
AcDbSymbolTable
 70
     2
  0
STYLE
  5
11
330
3
100
AcDbSymbolTableRecord
100
AcDbTextStyleTableRecord
  2
Standard
 70
     0
 40
0.0
 41
1.0
 50
0.0
 71
     0
 42
0.125
  3
txt
  4

  0
STYLE
  5
455
330
3
100
AcDbSymbolTableRecord
100
AcDbTextStyleTableRecord
  2
SLDTEXTSTYLE0
 70
     0
 40
0.0
 41
0.7
 50
0.0
 71
     0
 42
0.125
  3
TXT
  4

  0
ENDTAB
  0
TABLE
  2
VIEW
  5
6
330
0
100
AcDbSymbolTable
 70
     0
  0
ENDTAB
  0
TABLE
  2
UCS
  5
7
330
0
100
AcDbSymbolTable
 70
     0
  0
ENDTAB
  0
TABLE
  2
APPID
  5
9
330
0
100
AcDbSymbolTable
 70
     1
  0
APPID
  5
12
330
9
100
AcDbSymbolTableRecord
100
AcDbRegAppTableRecord
  2
ACAD
 70
     0
  0
ENDTAB
  0
TABLE
  2
DIMSTYLE
  5
A
330
0
100
AcDbSymbolTable
 70
     1
100
AcDbDimStyleTable
  0
DIMSTYLE
105
27
330
A
100
AcDbSymbolTableRecord
100
AcDbDimStyleTableRecord
  2
Standard
 70
     0
178
     0
340
11
  0
ENDTAB
  0
TABLE
  2
BLOCK_RECORD
  5
1
330
0
100
AcDbSymbolTable
 70
     1
  0
BLOCK_RECORD
  5
1F
330
1
100
AcDbSymbolTableRecord
100
AcDbBlockTableRecord
  2
*Model_Space
340
22
  0
BLOCK_RECORD
  5
1B
330
1
100
AcDbSymbolTableRecord
100
AcDbBlockTableRecord
  2
*Paper_Space
340
1E
  0
BLOCK_RECORD
  5
23
330
1
100
AcDbSymbolTableRecord
100
AcDbBlockTableRecord
  2
*Paper_Space0
340
26
  0
ENDTAB
  0
ENDSEC
  0
SECTION
  2
BLOCKS
  0
BLOCK
  5
20
330
1F
100
AcDbEntity
  8
0
100
AcDbBlockBegin
  2
*Model_Space
 70
     0
 10
0.0
 20
0.0
 30
0.0
  3
*Model_Space
  1
*Model_Space
  0
ENDBLK
  5
21
330
1F
100
AcDbEntity
  8
0
100
AcDbBlockEnd
  0
BLOCK
  5
1C
330
1B
100
AcDbEntity
 67
     1
  8
0
100
AcDbBlockBegin
  2
*Paper_Space
 70
     0
 10
0.0
 20
0.0
 30
0.0
  3
*Paper_Space
  1
*Paper_Space
  0
ENDBLK
  5
1D
330
1B
100
AcDbEntity
 67
     1
  8
0
100
AcDbBlockEnd
  0
BLOCK
  5
24
330
23
100
AcDbEntity
  8
0
100
AcDbBlockBegin
  2
*Paper_Space0
 70
     0
 10
0.0
 20
0.0
 30
0.0
  3
*Paper_Space0
  1
*Paper_Space0
  0
ENDBLK
  5
25
330
23
100
AcDbEntity
  8
0
100
AcDbBlockEnd
  0
ENDSEC
  0
SECTION
  2
ENTITIES
  0
LINE
  5
168
330
1F
100
AcDbEntity
  8
0
  6
Continuous
 62
     7
370
    15
100
AcDbLine
 10
1.6582176816
 20
-0.9043573881
 30
0.0
 11
1.6582176816
 21
-0.6543573881
 31
0.0
  0
LINE
  5
169
330
1F
100
AcDbEntity
  8
0
  6
Continuous
 62
     7
370
    15
100
AcDbLine
 10
0.5332176816
 20
-1.6134125062
 30
0.0
 11
1.0332176816
 21
-1.6134125062
 31
0.0
  0
LINE
  5
16A
330
1F
100
AcDbEntity
  8
0
  6
Continuous
 62
     7
370
    15
100
AcDbLine
 10
1.6582176816
 20
-0.6543573881
 30
0.0
 11
-0.0917823184
 21
-0.6543573881
 31
0.0
  0
LINE
  5
16B
330
1F
100
AcDbEntity
  8
0
  6
Continuous
 62
     7
370
    15
100
AcDbLine
 10
1.5401074453
 20
-0.9043573881
 30
0.0
 11
1.6582176816
 21
-0.9043573881
 31
0.0
  0
LINE
  5
16C
330
1F
100
AcDbEntity
  8
0
  6
Continuous
 62
     7
370
    15
100
AcDbLine
 10
1.5401074453
 20
-1.0793573881
 30
0.0
 11
1.5401074453
 21
-0.9043573881
 31
0.0
  0
LINE
  5
16D
330
1F
100
AcDbEntity
  8
0
  6
Continuous
 62
     7
370
    15
100
AcDbLine
 10
1.4241625634
 20
-1.0793573881
 30
0.0
 11
1.5401074453
 21
-1.0793573881
 31
0.0
  0
LINE
  5
16E
330
1F
100
AcDbEntity
  8
0
  6
Continuous
 62
     7
370
    15
100
AcDbLine
 10
1.4241625634
 20
-0.9543573881
 30
0.0
 11
1.4241625634
 21
-1.0793573881
 31
0.0
  0
LINE
  5
16F
330
1F
100
AcDbEntity
  8
0
  6
Continuous
 62
     7
370
    15
100
AcDbLine
 10
1.2741625634
 20
-0.9543573881
 30
0.0
 11
1.4241625634
 21
-0.9543573881
 31
0.0
  0
LINE
  5
170
330
1F
100
AcDbEntity
  8
0
  6
Continuous
 62
     7
370
    15
100
AcDbLine
 10
1.2741625634
 20
-1.0793573881
 30
0.0
 11
1.2741625634
 21
-0.9543573881
 31
0.0
  0
LINE
  5
171
330
1F
100
AcDbEntity
  8
0
  6
Continuous
 62
     7
370
    15
100
AcDbLine
 10
1.1582176816
 20
-1.0793573881
 30
0.0
 11
1.2741625634
 21
-1.0793573881
 31
0.0
  0
LINE
  5
172
330
1F
100
AcDbEntity
  8
0
  6
Continuous
 62
     7
370
    15
100
AcDbLine
 10
1.1582176816
 20
-1.2293573881
 30
0.0
 11
1.1582176816
 21
-1.0793573881
 31
0.0
  0
LINE
  5
173
330
1F
100
AcDbEntity
  8
0
  6
Continuous
 62
     7
370
    15
100
AcDbLine
 10
1.2741625634
 20
-1.2293573881
 30
0.0
 11
1.1582176816
 21
-1.2293573881
 31
0.0
  0
LINE
  5
174
330
1F
100
AcDbEntity
  8
0
  6
Continuous
 62
     7
370
    15
100
AcDbLine
 10
1.2741625634
 20
-1.3543573881
 30
0.0
 11
1.2741625634
 21
-1.2293573881
 31
0.0
  0
LINE
  5
175
330
1F
100
AcDbEntity
  8
0
  6
Continuous
 62
     7
370
    15
100
AcDbLine
 10
1.4241625634
 20
-1.3543573881
 30
0.0
 11
1.2741625634
 21
-1.3543573881
 31
0.0
  0
LINE
  5
176
330
1F
100
AcDbEntity
  8
0
  6
Continuous
 62
     7
370
    15
100
AcDbLine
 10
1.4241625634
 20
-1.2293573881
 30
0.0
 11
1.4241625634
 21
-1.3543573881
 31
0.0
  0
LINE
  5
177
330
1F
100
AcDbEntity
  8
0
  6
Continuous
 62
     7
370
    15
100
AcDbLine
 10
1.5401074453
 20
-1.2293573881
 30
0.0
 11
1.4241625634
 21
-1.2293573881
 31
0.0
  0
LINE
  5
178
330
1F
100
AcDbEntity
  8
0
  6
Continuous
 62
     7
370
    15
100
AcDbLine
 10
1.5401074453
 20
-1.4043573881
 30
0.0
 11
1.5401074453
 21
-1.2293573881
 31
0.0
  0
LINE
  5
179
330
1F
100
AcDbEntity
  8
0
  6
Continuous
 62
     7
370
    15
100
AcDbLine
 10
1.6582176816
 20
-1.4043573881
 30
0.0
 11
1.5401074453
 21
-1.4043573881
 31
0.0
  0
LINE
  5
17A
330
1F
100
AcDbEntity
  8
0
  6
Continuous
 62
     7
370
    15
100
AcDbLine
 10
1.6582176816
 20
-1.6543573881
 30
0.0
 11
1.6582176816
 21
-1.4043573881
 31
0.0
  0
LINE
  5
17B
330
1F
100
AcDbEntity
  8
0
  6
Continuous
 62
     7
370
    15
100
AcDbLine
 10
-0.0917823184
 20
-1.6543573881
 30
0.0
 11
1.6582176816
 21
-1.6543573881
 31
0.0
  0
LINE
  5
17C
330
1F
100
AcDbEntity
  8
0
  6
Continuous
 62
     7
370
    15
100
AcDbLine
 10
-0.0917823184
 20
-0.6543573881
 30
0.0
 11
-0.0917823184
 21
-1.6543573881
 31
0.0
  0
LINE
  5
17D
330
1F
100
AcDbEntity
  8
0
  6
Continuous
 62
     7
370
    15
100
AcDbLine
 10
1.0332176816
 20
-1.49530227
 30
0.0
 11
0.5332176816
 21
-1.49530227
 31
0.0
  0
LINE
  5
17E
330
1F
100
AcDbEntity
  8
0
  6
Continuous
 62
     7
370
    15
100
AcDbLine
 10
0.5332176816
 20
-1.49530227
 30
0.0
 11
0.5332176816
 21
-1.6134125062
 31
0.0
  0
LINE
  5
17F
330
1F
100
AcDbEntity
  8
0
  6
Continuous
 62
     7
370
    15
100
AcDbLine
 10
1.0332176816
 20
-1.6134125062
 30
0.0
 11
1.0332176816
 21
-1.49530227
 31
0.0
  0
LINE
  5
180
330
1F
100
AcDbEntity
  8
0
  6
Continuous
 62
     7
370
    15
100
AcDbLine
 10
-0.1394970842
 20
-1.1879925345
 30
0.0
 11
-0.1394970842
 21
-1.4004093864
 31
0.0
  0
LINE
  5
181
330
1F
100
AcDbEntity
  8
0
  6
Continuous
 62
     7
370
    15
100
AcDbLine
 10
-0.2576073204
 20
-1.4004093864
 30
0.0
 11
-0.1394970842
 21
-1.4004093864
 31
0.0
  0
LINE
  5
182
330
1F
100
AcDbEntity
  8
0
  6
Continuous
 62
     7
370
    15
100
AcDbLine
 10
-0.2576073204
 20
-1.6504093864
 30
0.0
 11
-0.2576073204
 21
-1.4004093864
 31
0.0
  0
LINE
  5
183
330
1F
100
AcDbEntity
  8
0
  6
Continuous
 62
     7
370
    15
100
AcDbLine
 10
-0.2576073204
 20
-1.6504093864
 30
0.0
 11
-1.0213868479
 21
-1.6504093864
 31
0.0
  0
LINE
  5
184
330
1F
100
AcDbEntity
  8
0
  6
Continuous
 62
     7
370
    15
100
AcDbLine
 10
-1.0213868479
 20
-1.4004093864
 30
0.0
 11
-1.0213868479
 21
-1.6504093864
 31
0.0
  0
LINE
  5
185
330
1F
100
AcDbEntity
  8
0
  6
Continuous
 62
     7
370
    15
100
AcDbLine
 10
-1.1394970842
 20
-1.4004093864
 30
0.0
 11
-1.0213868479
 21
-1.4004093864
 31
0.0
  0
LINE
  5
186
330
1F
100
AcDbEntity
  8
0
  6
Continuous
 62
     7
370
    15
100
AcDbLine
 10
-1.1394970842
 20
-1.4004093864
 30
0.0
 11
-1.1394970842
 21
-1.1879925345
 31
0.0
  0
LINE
  5
187
330
1F
100
AcDbEntity
  8
0
  6
Continuous
 62
     7
370
    15
100
AcDbLine
 10
-1.1394970842
 20
-1.1128262382
 30
0.0
 11
-1.1394970842
 21
-0.9004093864
 31
0.0
  0
LINE
  5
188
330
1F
100
AcDbEntity
  8
0
  6
Continuous
 62
     7
370
    15
100
AcDbLine
 10
-1.0213868479
 20
-0.9004093864
 30
0.0
 11
-1.1394970842
 21
-0.9004093864
 31
0.0
  0
LINE
  5
189
330
1F
100
AcDbEntity
  8
0
  6
Continuous
 62
     7
370
    15
100
AcDbLine
 10
-1.0213868479
 20
-0.6504093864
 30
0.0
 11
-1.0213868479
 21
-0.9004093864
 31
0.0
  0
LINE
  5
18A
330
1F
100
AcDbEntity
  8
0
  6
Continuous
 62
     7
370
    15
100
AcDbLine
 10
-1.0213868479
 20
-0.6504093864
 30
0.0
 11
-0.2576073204
 21
-0.6504093864
 31
0.0
  0
LINE
  5
18B
330
1F
100
AcDbEntity
  8
0
  6
Continuous
 62
     7
370
    15
100
AcDbLine
 10
-0.2576073204
 20
-0.9004093864
 30
0.0
 11
-0.2576073204
 21
-0.6504093864
 31
0.0
  0
LINE
  5
18C
330
1F
100
AcDbEntity
  8
0
  6
Continuous
 62
     7
370
    15
100
AcDbLine
 10
-0.1394970842
 20
-0.9004093864
 30
0.0
 11
-0.2576073204
 21
-0.9004093864
 31
0.0
  0
LINE
  5
18D
330
1F
100
AcDbEntity
  8
0
  6
Continuous
 62
     7
370
    15
100
AcDbLine
 10
-0.1394970842
 20
-0.9004093864
 30
0.0
 11
-0.1394970842
 21
-1.1128262382
 31
0.0
  0
LINE
  5
18E
330
1F
100
AcDbEntity
  8
0
  6
Continuous
 62
     7
370
    15
100
AcDbLine
 10
-0.7394970842
 20
-0.6913542683
 30
0.0
 11
-0.5394970842
 21
-0.6913542683
 31
0.0
  0
LINE
  5
18F
330
1F
100
AcDbEntity
  8
0
  6
Continuous
 62
     7
370
    15
100
AcDbLine
 10
-0.7394970842
 20
-0.8094645045
 30
0.0
 11
-0.7394970842
 21
-0.6913542683
 31
0.0
  0
LINE
  5
190
330
1F
100
AcDbEntity
  8
0
  6
Continuous
 62
     7
370
    15
100
AcDbLine
 10
-0.5394970842
 20
-0.8094645045
 30
0.0
 11
-0.7394970842
 21
-0.8094645045
 31
0.0
  0
LINE
  5
191
330
1F
100
AcDbEntity
  8
0
  6
Continuous
 62
     7
370
    15
100
AcDbLine
 10
-0.5394970842
 20
-0.6913542683
 30
0.0
 11
-0.5394970842
 21
-0.8094645045
 31
0.0
  0
LINE
  5
192
330
1F
100
AcDbEntity
  8
0
  6
Continuous
 62
     7
370
    15
100
AcDbLine
 10
1.0406033692
 20
0.0601531124
 30
0.0
 11
1.0234006549
 21
0.3353965401
 31
0.0
  0
LINE
  5
193
330
1F
100
AcDbEntity
  8
0
  6
Continuous
 62
     7
370
    15
100
AcDbLine
 10
0.2984006549
 20
-0.5646034599
 30
0.0
 11
0.2734006549
 21
-0.1146034599
 31
0.0
  0
LINE
  5
194
330
1F
100
AcDbEntity
  8
0
  6
Continuous
 62
     7
370
    15
100
AcDbLine
 10
-0.3265993451
 20
-0.0146034599
 30
0.0
 11
-0.3015993451
 21
0.4353965401
 31
0.0
  0
LINE
  5
195
330
1F
100
AcDbEntity
  8
0
  6
Continuous
 62
     7
370
    15
100
AcDbLine
 10
-0.5765993451
 20
-0.5646034599
 30
0.0
 11
-0.3515993451
 21
-0.5646034599
 31
0.0
  0
LINE
  5
196
330
1F
100
AcDbEntity
  8
0
  6
Continuous
 62
     7
370
    15
100
AcDbLine
 10
-0.5765993451
 20
0.4353965401
 30
0.0
 11
-0.5765993451
 21
-0.5646034599
 31
0.0
  0
LINE
  5
197
330
1F
100
AcDbEntity
  8
0
  6
Continuous
 62
     7
370
    15
100
AcDbLine
 10
-0.3515993451
 20
0.4353965401
 30
0.0
 11
-0.5765993451
 21
0.4353965401
 31
0.0
  0
LINE
  5
198
330
1F
100
AcDbEntity
  8
0
  6
Continuous
 62
     7
370
    15
100
AcDbLine
 10
-0.3515993451
 20
0.4353965401
 30
0.0
 11
-0.3265993451
 21
-0.0146034599
 31
0.0
  0
LINE
  5
199
330
1F
100
AcDbEntity
  8
0
  6
Continuous
 62
     7
370
    15
100
AcDbLine
 10
-0.2515993451
 20
0.4353965401
 30
0.0
 11
-0.3015993451
 21
0.4353965401
 31
0.0
  0
LINE
  5
19A
330
1F
100
AcDbEntity
  8
0
  6
Continuous
 62
     7
370
    15
100
AcDbLine
 10
-0.2515993451
 20
0.4353965401
 30
0.0
 11
-0.2265993451
 21
-0.0146034599
 31
0.0
  0
LINE
  5
19B
330
1F
100
AcDbEntity
  8
0
  6
Continuous
 62
     7
370
    15
100
AcDbLine
 10
-0.2265993451
 20
-0.0146034599
 30
0.0
 11
-0.2015993451
 21
0.4353965401
 31
0.0
  0
LINE
  5
19C
330
1F
100
AcDbEntity
  8
0
  6
Continuous
 62
     7
370
    15
100
AcDbLine
 10
-0.1515993451
 20
0.4353965401
 30
0.0
 11
-0.2015993451
 21
0.4353965401
 31
0.0
  0
LINE
  5
19D
330
1F
100
AcDbEntity
  8
0
  6
Continuous
 62
     7
370
    15
100
AcDbLine
 10
-0.1515993451
 20
0.4353965401
 30
0.0
 11
-0.1265993451
 21
-0.0146034599
 31
0.0
  0
LINE
  5
19E
330
1F
100
AcDbEntity
  8
0
  6
Continuous
 62
     7
370
    15
100
AcDbLine
 10
-0.1265993451
 20
-0.0146034599
 30
0.0
 11
-0.1015993451
 21
0.4353965401
 31
0.0
  0
LINE
  5
19F
330
1F
100
AcDbEntity
  8
0
  6
Continuous
 62
     7
370
    15
100
AcDbLine
 10
-0.0515993451
 20
0.4353965401
 30
0.0
 11
-0.1015993451
 21
0.4353965401
 31
0.0
  0
LINE
  5
1A0
330
1F
100
AcDbEntity
  8
0
  6
Continuous
 62
     7
370
    15
100
AcDbLine
 10
-0.0515993451
 20
0.4353965401
 30
0.0
 11
-0.0265993451
 21
-0.0146034599
 31
0.0
  0
LINE
  5
1A1
330
1F
100
AcDbEntity
  8
0
  6
Continuous
 62
     7
370
    15
100
AcDbLine
 10
-0.0265993451
 20
-0.0146034599
 30
0.0
 11
-0.0015993451
 21
0.4353965401
 31
0.0
  0
LINE
  5
1A2
330
1F
100
AcDbEntity
  8
0
  6
Continuous
 62
     7
370
    15
100
AcDbLine
 10
0.0484006549
 20
0.4353965401
 30
0.0
 11
-0.0015993451
 21
0.4353965401
 31
0.0
  0
LINE
  5
1A3
330
1F
100
AcDbEntity
  8
0
  6
Continuous
 62
     7
370
    15
100
AcDbLine
 10
0.0484006549
 20
0.4353965401
 30
0.0
 11
0.0734006549
 21
-0.0146034599
 31
0.0
  0
LINE
  5
1A4
330
1F
100
AcDbEntity
  8
0
  6
Continuous
 62
     7
370
    15
100
AcDbLine
 10
0.0734006549
 20
-0.0146034599
 30
0.0
 11
0.0984006549
 21
0.4353965401
 31
0.0
  0
LINE
  5
1A5
330
1F
100
AcDbEntity
  8
0
  6
Continuous
 62
     7
370
    15
100
AcDbLine
 10
0.1484006549
 20
0.4353965401
 30
0.0
 11
0.0984006549
 21
0.4353965401
 31
0.0
  0
LINE
  5
1A6
330
1F
100
AcDbEntity
  8
0
  6
Continuous
 62
     7
370
    15
100
AcDbLine
 10
0.1484006549
 20
0.4353965401
 30
0.0
 11
0.1734006549
 21
-0.0146034599
 31
0.0
  0
LINE
  5
1A7
330
1F
100
AcDbEntity
  8
0
  6
Continuous
 62
     7
370
    15
100
AcDbLine
 10
0.1734006549
 20
-0.0146034599
 30
0.0
 11
0.1984006549
 21
0.4353965401
 31
0.0
  0
LINE
  5
1A8
330
1F
100
AcDbEntity
  8
0
  6
Continuous
 62
     7
370
    15
100
AcDbLine
 10
0.2484006549
 20
0.4353965401
 30
0.0
 11
0.1984006549
 21
0.4353965401
 31
0.0
  0
LINE
  5
1A9
330
1F
100
AcDbEntity
  8
0
  6
Continuous
 62
     7
370
    15
100
AcDbLine
 10
0.2484006549
 20
0.4353965401
 30
0.0
 11
0.2734006549
 21
-0.0146034599
 31
0.0
  0
LINE
  5
1AA
330
1F
100
AcDbEntity
  8
0
  6
Continuous
 62
     7
370
    15
100
AcDbLine
 10
0.2734006549
 20
-0.0146034599
 30
0.0
 11
0.2984006549
 21
0.4353965401
 31
0.0
  0
LINE
  5
1AB
330
1F
100
AcDbEntity
  8
0
  6
Continuous
 62
     7
370
    15
100
AcDbLine
 10
0.3484006549
 20
0.4353965401
 30
0.0
 11
0.2984006549
 21
0.4353965401
 31
0.0
  0
LINE
  5
1AC
330
1F
100
AcDbEntity
  8
0
  6
Continuous
 62
     7
370
    15
100
AcDbLine
 10
0.3484006549
 20
0.4353965401
 30
0.0
 11
0.3734006549
 21
-0.0146034599
 31
0.0
  0
LINE
  5
1AD
330
1F
100
AcDbEntity
  8
0
  6
Continuous
 62
     7
370
    15
100
AcDbLine
 10
0.3734006549
 20
-0.0146034599
 30
0.0
 11
0.3984006549
 21
0.4353965401
 31
0.0
  0
LINE
  5
1AE
330
1F
100
AcDbEntity
  8
0
  6
Continuous
 62
     7
370
    15
100
AcDbLine
 10
0.4484006549
 20
0.4353965401
 30
0.0
 11
0.3984006549
 21
0.4353965401
 31
0.0
  0
LINE
  5
1AF
330
1F
100
AcDbEntity
  8
0
  6
Continuous
 62
     7
370
    15
100
AcDbLine
 10
0.4484006549
 20
0.4353965401
 30
0.0
 11
0.4734006549
 21
-0.0146034599
 31
0.0
  0
LINE
  5
1B0
330
1F
100
AcDbEntity
  8
0
  6
Continuous
 62
     7
370
    15
100
AcDbLine
 10
0.4734006549
 20
-0.0146034599
 30
0.0
 11
0.4984006549
 21
0.4353965401
 31
0.0
  0
LINE
  5
1B1
330
1F
100
AcDbEntity
  8
0
  6
Continuous
 62
     7
370
    15
100
AcDbLine
 10
0.5484006549
 20
0.4353965401
 30
0.0
 11
0.4984006549
 21
0.4353965401
 31
0.0
  0
LINE
  5
1B2
330
1F
100
AcDbEntity
  8
0
  6
Continuous
 62
     7
370
    15
100
AcDbLine
 10
0.5484006549
 20
0.4353965401
 30
0.0
 11
0.5734006549
 21
-0.0146034599
 31
0.0
  0
LINE
  5
1B3
330
1F
100
AcDbEntity
  8
0
  6
Continuous
 62
     7
370
    15
100
AcDbLine
 10
0.5734006549
 20
-0.0146034599
 30
0.0
 11
0.5984006549
 21
0.4353965401
 31
0.0
  0
LINE
  5
1B4
330
1F
100
AcDbEntity
  8
0
  6
Continuous
 62
     7
370
    15
100
AcDbLine
 10
0.6484006549
 20
0.4353965401
 30
0.0
 11
0.5984006549
 21
0.4353965401
 31
0.0
  0
LINE
  5
1B5
330
1F
100
AcDbEntity
  8
0
  6
Continuous
 62
     7
370
    15
100
AcDbLine
 10
0.6484006549
 20
0.4353965401
 30
0.0
 11
0.6734006549
 21
-0.0146034599
 31
0.0
  0
LINE
  5
1B6
330
1F
100
AcDbEntity
  8
0
  6
Continuous
 62
     7
370
    15
100
AcDbLine
 10
0.6734006549
 20
-0.0146034599
 30
0.0
 11
0.6984006549
 21
0.4353965401
 31
0.0
  0
LINE
  5
1B7
330
1F
100
AcDbEntity
  8
0
  6
Continuous
 62
     7
370
    15
100
AcDbLine
 10
0.7484006549
 20
0.4353965401
 30
0.0
 11
0.6984006549
 21
0.4353965401
 31
0.0
  0
LINE
  5
1B8
330
1F
100
AcDbEntity
  8
0
  6
Continuous
 62
     7
370
    15
100
AcDbLine
 10
0.7484006549
 20
0.4353965401
 30
0.0
 11
0.7734006549
 21
-0.0146034599
 31
0.0
  0
LINE
  5
1B9
330
1F
100
AcDbEntity
  8
0
  6
Continuous
 62
     7
370
    15
100
AcDbLine
 10
0.7734006549
 20
-0.0146034599
 30
0.0
 11
0.7984006549
 21
0.4353965401
 31
0.0
  0
LINE
  5
1BA
330
1F
100
AcDbEntity
  8
0
  6
Continuous
 62
     7
370
    15
100
AcDbLine
 10
0.8484006549
 20
0.4353965401
 30
0.0
 11
0.7984006549
 21
0.4353965401
 31
0.0
  0
LINE
  5
1BB
330
1F
100
AcDbEntity
  8
0
  6
Continuous
 62
     7
370
    15
100
AcDbLine
 10
0.8484006549
 20
0.4353965401
 30
0.0
 11
0.8734006549
 21
-0.0146034599
 31
0.0
  0
LINE
  5
1BC
330
1F
100
AcDbEntity
  8
0
  6
Continuous
 62
     7
370
    15
100
AcDbLine
 10
0.8734006549
 20
-0.0146034599
 30
0.0
 11
0.8984006549
 21
0.4353965401
 31
0.0
  0
LINE
  5
1BD
330
1F
100
AcDbEntity
  8
0
  6
Continuous
 62
     7
370
    15
100
AcDbLine
 10
0.9484006549
 20
0.4353965401
 30
0.0
 11
0.8984006549
 21
0.4353965401
 31
0.0
  0
LINE
  5
1BE
330
1F
100
AcDbEntity
  8
0
  6
Continuous
 62
     7
370
    15
100
AcDbLine
 10
0.9484006549
 20
0.4353965401
 30
0.0
 11
0.9734006549
 21
-0.0146034599
 31
0.0
  0
LINE
  5
1BF
330
1F
100
AcDbEntity
  8
0
  6
Continuous
 62
     7
370
    15
100
AcDbLine
 10
0.9734006549
 20
-0.0146034599
 30
0.0
 11
0.9984006549
 21
0.4353965401
 31
0.0
  0
LINE
  5
1C0
330
1F
100
AcDbEntity
  8
0
  6
Continuous
 62
     7
370
    15
100
AcDbLine
 10
1.0484006549
 20
0.4353965401
 30
0.0
 11
0.9984006549
 21
0.4353965401
 31
0.0
  0
LINE
  5
1C1
330
1F
100
AcDbEntity
  8
0
  6
Continuous
 62
     7
370
    15
100
AcDbLine
 10
1.0484006549
 20
0.4353965401
 30
0.0
 11
1.0734006549
 21
-0.0146034599
 31
0.0
  0
LINE
  5
1C2
330
1F
100
AcDbEntity
  8
0
  6
Continuous
 62
     7
370
    15
100
AcDbLine
 10
1.0734006549
 20
-0.0146034599
 30
0.0
 11
1.0984006549
 21
0.4353965401
 31
0.0
  0
LINE
  5
1C3
330
1F
100
AcDbEntity
  8
0
  6
Continuous
 62
     7
370
    15
100
AcDbLine
 10
1.6734006549
 20
0.4353965401
 30
0.0
 11
1.0984006549
 21
0.4353965401
 31
0.0
  0
LINE
  5
1C4
330
1F
100
AcDbEntity
  8
0
  6
Continuous
 62
     7
370
    15
100
AcDbLine
 10
1.6734006549
 20
0.1853965401
 30
0.0
 11
1.6734006549
 21
0.4353965401
 31
0.0
  0
LINE
  5
1C5
330
1F
100
AcDbEntity
  8
0
  6
Continuous
 62
     7
370
    15
100
AcDbLine
 10
1.5552904187
 20
0.1853965401
 30
0.0
 11
1.6734006549
 21
0.1853965401
 31
0.0
  0
LINE
  5
1C6
330
1F
100
AcDbEntity
  8
0
  6
Continuous
 62
     7
370
    15
100
AcDbLine
 10
1.5552904187
 20
0.0103965401
 30
0.0
 11
1.5552904187
 21
0.1853965401
 31
0.0
  0
LINE
  5
1C7
330
1F
100
AcDbEntity
  8
0
  6
Continuous
 62
     7
370
    15
100
AcDbLine
 10
1.4393455368
 20
0.0103965401
 30
0.0
 11
1.5552904187
 21
0.0103965401
 31
0.0
  0
LINE
  5
1C8
330
1F
100
AcDbEntity
  8
0
  6
Continuous
 62
     7
370
    15
100
AcDbLine
 10
1.4393455368
 20
0.1353965401
 30
0.0
 11
1.4393455368
 21
0.0103965401
 31
0.0
  0
LINE
  5
1C9
330
1F
100
AcDbEntity
  8
0
  6
Continuous
 62
     7
370
    15
100
AcDbLine
 10
1.2893455368
 20
0.1353965401
 30
0.0
 11
1.4393455368
 21
0.1353965401
 31
0.0
  0
LINE
  5
1CA
330
1F
100
AcDbEntity
  8
0
  6
Continuous
 62
     7
370
    15
100
AcDbLine
 10
1.2893455368
 20
0.0103965401
 30
0.0
 11
1.2893455368
 21
0.1353965401
 31
0.0
  0
LINE
  5
1CB
330
1F
100
AcDbEntity
  8
0
  6
Continuous
 62
     7
370
    15
100
AcDbLine
 10
1.1734006549
 20
0.0103965401
 30
0.0
 11
1.2893455368
 21
0.0103965401
 31
0.0
  0
LINE
  5
1CC
330
1F
100
AcDbEntity
  8
0
  6
Continuous
 62
     7
370
    15
100
AcDbLine
 10
1.1734006549
 20
-0.1396034599
 30
0.0
 11
1.1734006549
 21
0.0103965401
 31
0.0
  0
LINE
  5
1CD
330
1F
100
AcDbEntity
  8
0
  6
Continuous
 62
     7
370
    15
100
AcDbLine
 10
1.2893455368
 20
-0.1396034599
 30
0.0
 11
1.1734006549
 21
-0.1396034599
 31
0.0
  0
LINE
  5
1CE
330
1F
100
AcDbEntity
  8
0
  6
Continuous
 62
     7
370
    15
100
AcDbLine
 10
1.2893455368
 20
-0.2646034599
 30
0.0
 11
1.2893455368
 21
-0.1396034599
 31
0.0
  0
LINE
  5
1CF
330
1F
100
AcDbEntity
  8
0
  6
Continuous
 62
     7
370
    15
100
AcDbLine
 10
1.4393455368
 20
-0.2646034599
 30
0.0
 11
1.2893455368
 21
-0.2646034599
 31
0.0
  0
LINE
  5
1D0
330
1F
100
AcDbEntity
  8
0
  6
Continuous
 62
     7
370
    15
100
AcDbLine
 10
1.4393455368
 20
-0.1396034599
 30
0.0
 11
1.4393455368
 21
-0.2646034599
 31
0.0
  0
LINE
  5
1D1
330
1F
100
AcDbEntity
  8
0
  6
Continuous
 62
     7
370
    15
100
AcDbLine
 10
1.5552904187
 20
-0.1396034599
 30
0.0
 11
1.4393455368
 21
-0.1396034599
 31
0.0
  0
LINE
  5
1D2
330
1F
100
AcDbEntity
  8
0
  6
Continuous
 62
     7
370
    15
100
AcDbLine
 10
1.5552904187
 20
-0.3146034599
 30
0.0
 11
1.5552904187
 21
-0.1396034599
 31
0.0
  0
LINE
  5
1D3
330
1F
100
AcDbEntity
  8
0
  6
Continuous
 62
     7
370
    15
100
AcDbLine
 10
1.6734006549
 20
-0.3146034599
 30
0.0
 11
1.5552904187
 21
-0.3146034599
 31
0.0
  0
LINE
  5
1D4
330
1F
100
AcDbEntity
  8
0
  6
Continuous
 62
     7
370
    15
100
AcDbLine
 10
1.6734006549
 20
-0.5646034599
 30
0.0
 11
1.6734006549
 21
-0.3146034599
 31
0.0
  0
LINE
  5
1D5
330
1F
100
AcDbEntity
  8
0
  6
Continuous
 62
     7
370
    15
100
AcDbLine
 10
1.0984006549
 20
-0.5646034599
 30
0.0
 11
1.6734006549
 21
-0.5646034599
 31
0.0
  0
LINE
  5
1D6
330
1F
100
AcDbEntity
  8
0
  6
Continuous
 62
     7
370
    15
100
AcDbLine
 10
1.0984006549
 20
-0.5646034599
 30
0.0
 11
1.0734006549
 21
-0.1146034599
 31
0.0
  0
LINE
  5
1D7
330
1F
100
AcDbEntity
  8
0
  6
Continuous
 62
     7
370
    15
100
AcDbLine
 10
1.0734006549
 20
-0.1146034599
 30
0.0
 11
1.0484006549
 21
-0.5646034599
 31
0.0
  0
LINE
  5
1D8
330
1F
100
AcDbEntity
  8
0
  6
Continuous
 62
     7
370
    15
100
AcDbLine
 10
0.9984006549
 20
-0.5646034599
 30
0.0
 11
1.0484006549
 21
-0.5646034599
 31
0.0
  0
LINE
  5
1D9
330
1F
100
AcDbEntity
  8
0
  6
Continuous
 62
     7
370
    15
100
AcDbLine
 10
0.9984006549
 20
-0.5646034599
 30
0.0
 11
0.9734006549
 21
-0.1146034599
 31
0.0
  0
LINE
  5
1DA
330
1F
100
AcDbEntity
  8
0
  6
Continuous
 62
     7
370
    15
100
AcDbLine
 10
0.9734006549
 20
-0.1146034599
 30
0.0
 11
0.9484006549
 21
-0.5646034599
 31
0.0
  0
LINE
  5
1DB
330
1F
100
AcDbEntity
  8
0
  6
Continuous
 62
     7
370
    15
100
AcDbLine
 10
0.8984006549
 20
-0.5646034599
 30
0.0
 11
0.9484006549
 21
-0.5646034599
 31
0.0
  0
LINE
  5
1DC
330
1F
100
AcDbEntity
  8
0
  6
Continuous
 62
     7
370
    15
100
AcDbLine
 10
0.8984006549
 20
-0.5646034599
 30
0.0
 11
0.8734006549
 21
-0.1146034599
 31
0.0
  0
LINE
  5
1DD
330
1F
100
AcDbEntity
  8
0
  6
Continuous
 62
     7
370
    15
100
AcDbLine
 10
0.8734006549
 20
-0.1146034599
 30
0.0
 11
0.8484006549
 21
-0.5646034599
 31
0.0
  0
LINE
  5
1DE
330
1F
100
AcDbEntity
  8
0
  6
Continuous
 62
     7
370
    15
100
AcDbLine
 10
0.7984006549
 20
-0.5646034599
 30
0.0
 11
0.8484006549
 21
-0.5646034599
 31
0.0
  0
LINE
  5
1DF
330
1F
100
AcDbEntity
  8
0
  6
Continuous
 62
     7
370
    15
100
AcDbLine
 10
0.7984006549
 20
-0.5646034599
 30
0.0
 11
0.7734006549
 21
-0.1146034599
 31
0.0
  0
LINE
  5
1E0
330
1F
100
AcDbEntity
  8
0
  6
Continuous
 62
     7
370
    15
100
AcDbLine
 10
0.7734006549
 20
-0.1146034599
 30
0.0
 11
0.7484006549
 21
-0.5646034599
 31
0.0
  0
LINE
  5
1E1
330
1F
100
AcDbEntity
  8
0
  6
Continuous
 62
     7
370
    15
100
AcDbLine
 10
0.6984006549
 20
-0.5646034599
 30
0.0
 11
0.7484006549
 21
-0.5646034599
 31
0.0
  0
LINE
  5
1E2
330
1F
100
AcDbEntity
  8
0
  6
Continuous
 62
     7
370
    15
100
AcDbLine
 10
0.6984006549
 20
-0.5646034599
 30
0.0
 11
0.6734006549
 21
-0.1146034599
 31
0.0
  0
LINE
  5
1E3
330
1F
100
AcDbEntity
  8
0
  6
Continuous
 62
     7
370
    15
100
AcDbLine
 10
0.6734006549
 20
-0.1146034599
 30
0.0
 11
0.6484006549
 21
-0.5646034599
 31
0.0
  0
LINE
  5
1E4
330
1F
100
AcDbEntity
  8
0
  6
Continuous
 62
     7
370
    15
100
AcDbLine
 10
0.5984006549
 20
-0.5646034599
 30
0.0
 11
0.6484006549
 21
-0.5646034599
 31
0.0
  0
LINE
  5
1E5
330
1F
100
AcDbEntity
  8
0
  6
Continuous
 62
     7
370
    15
100
AcDbLine
 10
0.5984006549
 20
-0.5646034599
 30
0.0
 11
0.5734006549
 21
-0.1146034599
 31
0.0
  0
LINE
  5
1E6
330
1F
100
AcDbEntity
  8
0
  6
Continuous
 62
     7
370
    15
100
AcDbLine
 10
0.5734006549
 20
-0.1146034599
 30
0.0
 11
0.5484006549
 21
-0.5646034599
 31
0.0
  0
LINE
  5
1E7
330
1F
100
AcDbEntity
  8
0
  6
Continuous
 62
     7
370
    15
100
AcDbLine
 10
0.4984006549
 20
-0.5646034599
 30
0.0
 11
0.5484006549
 21
-0.5646034599
 31
0.0
  0
LINE
  5
1E8
330
1F
100
AcDbEntity
  8
0
  6
Continuous
 62
     7
370
    15
100
AcDbLine
 10
0.4984006549
 20
-0.5646034599
 30
0.0
 11
0.4734006549
 21
-0.1146034599
 31
0.0
  0
LINE
  5
1E9
330
1F
100
AcDbEntity
  8
0
  6
Continuous
 62
     7
370
    15
100
AcDbLine
 10
0.4734006549
 20
-0.1146034599
 30
0.0
 11
0.4484006549
 21
-0.5646034599
 31
0.0
  0
LINE
  5
1EA
330
1F
100
AcDbEntity
  8
0
  6
Continuous
 62
     7
370
    15
100
AcDbLine
 10
0.3984006549
 20
-0.5646034599
 30
0.0
 11
0.4484006549
 21
-0.5646034599
 31
0.0
  0
LINE
  5
1EB
330
1F
100
AcDbEntity
  8
0
  6
Continuous
 62
     7
370
    15
100
AcDbLine
 10
0.3984006549
 20
-0.5646034599
 30
0.0
 11
0.3734006549
 21
-0.1146034599
 31
0.0
  0
LINE
  5
1EC
330
1F
100
AcDbEntity
  8
0
  6
Continuous
 62
     7
370
    15
100
AcDbLine
 10
0.3734006549
 20
-0.1146034599
 30
0.0
 11
0.3484006549
 21
-0.5646034599
 31
0.0
  0
LINE
  5
1ED
330
1F
100
AcDbEntity
  8
0
  6
Continuous
 62
     7
370
    15
100
AcDbLine
 10
0.2984006549
 20
-0.5646034599
 30
0.0
 11
0.3484006549
 21
-0.5646034599
 31
0.0
  0
LINE
  5
1EE
330
1F
100
AcDbEntity
  8
0
  6
Continuous
 62
     7
370
    15
100
AcDbLine
 10
0.2734006549
 20
-0.1146034599
 30
0.0
 11
0.2484006549
 21
-0.5646034599
 31
0.0
  0
LINE
  5
1EF
330
1F
100
AcDbEntity
  8
0
  6
Continuous
 62
     7
370
    15
100
AcDbLine
 10
0.1984006549
 20
-0.5646034599
 30
0.0
 11
0.2484006549
 21
-0.5646034599
 31
0.0
  0
LINE
  5
1F0
330
1F
100
AcDbEntity
  8
0
  6
Continuous
 62
     7
370
    15
100
AcDbLine
 10
0.1984006549
 20
-0.5646034599
 30
0.0
 11
0.1734006549
 21
-0.1146034599
 31
0.0
  0
LINE
  5
1F1
330
1F
100
AcDbEntity
  8
0
  6
Continuous
 62
     7
370
    15
100
AcDbLine
 10
0.1734006549
 20
-0.1146034599
 30
0.0
 11
0.1484006549
 21
-0.5646034599
 31
0.0
  0
LINE
  5
1F2
330
1F
100
AcDbEntity
  8
0
  6
Continuous
 62
     7
370
    15
100
AcDbLine
 10
0.0984006549
 20
-0.5646034599
 30
0.0
 11
0.1484006549
 21
-0.5646034599
 31
0.0
  0
LINE
  5
1F3
330
1F
100
AcDbEntity
  8
0
  6
Continuous
 62
     7
370
    15
100
AcDbLine
 10
0.0984006549
 20
-0.5646034599
 30
0.0
 11
0.0734006549
 21
-0.1146034599
 31
0.0
  0
LINE
  5
1F4
330
1F
100
AcDbEntity
  8
0
  6
Continuous
 62
     7
370
    15
100
AcDbLine
 10
0.0734006549
 20
-0.1146034599
 30
0.0
 11
0.0484006549
 21
-0.5646034599
 31
0.0
  0
LINE
  5
1F5
330
1F
100
AcDbEntity
  8
0
  6
Continuous
 62
     7
370
    15
100
AcDbLine
 10
-0.0015993451
 20
-0.5646034599
 30
0.0
 11
0.0484006549
 21
-0.5646034599
 31
0.0
  0
LINE
  5
1F6
330
1F
100
AcDbEntity
  8
0
  6
Continuous
 62
     7
370
    15
100
AcDbLine
 10
-0.0015993451
 20
-0.5646034599
 30
0.0
 11
-0.0265993451
 21
-0.1146034599
 31
0.0
  0
LINE
  5
1F7
330
1F
100
AcDbEntity
  8
0
  6
Continuous
 62
     7
370
    15
100
AcDbLine
 10
-0.0265993451
 20
-0.1146034599
 30
0.0
 11
-0.0515993451
 21
-0.5646034599
 31
0.0
  0
LINE
  5
1F8
330
1F
100
AcDbEntity
  8
0
  6
Continuous
 62
     7
370
    15
100
AcDbLine
 10
-0.1015993451
 20
-0.5646034599
 30
0.0
 11
-0.0515993451
 21
-0.5646034599
 31
0.0
  0
LINE
  5
1F9
330
1F
100
AcDbEntity
  8
0
  6
Continuous
 62
     7
370
    15
100
AcDbLine
 10
-0.1015993451
 20
-0.5646034599
 30
0.0
 11
-0.1265993451
 21
-0.1146034599
 31
0.0
  0
LINE
  5
1FA
330
1F
100
AcDbEntity
  8
0
  6
Continuous
 62
     7
370
    15
100
AcDbLine
 10
-0.1265993451
 20
-0.1146034599
 30
0.0
 11
-0.1515993451
 21
-0.5646034599
 31
0.0
  0
LINE
  5
1FB
330
1F
100
AcDbEntity
  8
0
  6
Continuous
 62
     7
370
    15
100
AcDbLine
 10
-0.2015993451
 20
-0.5646034599
 30
0.0
 11
-0.1515993451
 21
-0.5646034599
 31
0.0
  0
LINE
  5
1FC
330
1F
100
AcDbEntity
  8
0
  6
Continuous
 62
     7
370
    15
100
AcDbLine
 10
-0.2015993451
 20
-0.5646034599
 30
0.0
 11
-0.2265993451
 21
-0.1146034599
 31
0.0
  0
LINE
  5
1FD
330
1F
100
AcDbEntity
  8
0
  6
Continuous
 62
     7
370
    15
100
AcDbLine
 10
-0.2265993451
 20
-0.1146034599
 30
0.0
 11
-0.2515993451
 21
-0.5646034599
 31
0.0
  0
LINE
  5
1FE
330
1F
100
AcDbEntity
  8
0
  6
Continuous
 62
     7
370
    15
100
AcDbLine
 10
-0.3015993451
 20
-0.5646034599
 30
0.0
 11
-0.2515993451
 21
-0.5646034599
 31
0.0
  0
LINE
  5
1FF
330
1F
100
AcDbEntity
  8
0
  6
Continuous
 62
     7
370
    15
100
AcDbLine
 10
-0.3015993451
 20
-0.5646034599
 30
0.0
 11
-0.3265993451
 21
-0.1146034599
 31
0.0
  0
LINE
  5
200
330
1F
100
AcDbEntity
  8
0
  6
Continuous
 62
     7
370
    15
100
AcDbLine
 10
-0.3265993451
 20
-0.1146034599
 30
0.0
 11
-0.3515993451
 21
-0.5646034599
 31
0.0
  0
LINE
  5
201
330
1F
100
AcDbEntity
  8
0
  6
Continuous
 62
     7
370
    15
100
AcDbLine
 10
1.0061979407
 20
-0.1893600322
 30
0.0
 11
1.0234006549
 21
-0.4646034599
 31
0.0
  0
LINE
  5
202
330
1F
100
AcDbEntity
  8
0
  6
Continuous
 62
     7
370
    15
100
AcDbLine
 10
1.0234006549
 20
-0.4646034599
 30
0.0
 11
1.0406033692
 21
-0.1893600322
 31
0.0
  0
LINE
  5
203
330
1F
100
AcDbEntity
  8
0
  6
Continuous
 62
     7
370
    15
100
AcDbLine
 10
1.0234006549
 20
0.3353965401
 30
0.0
 11
1.0061979407
 21
0.0601531124
 31
0.0
  0
LINE
  5
204
330
1F
100
AcDbEntity
  8
0
  6
Continuous
 62
     7
370
    15
100
AcDbLine
 10
0.9061979407
 20
-0.1893600322
 30
0.0
 11
0.9234006549
 21
-0.4646034599
 31
0.0
  0
LINE
  5
205
330
1F
100
AcDbEntity
  8
0
  6
Continuous
 62
     7
370
    15
100
AcDbLine
 10
0.9234006549
 20
-0.4646034599
 30
0.0
 11
0.9406033692
 21
-0.1893600322
 31
0.0
  0
LINE
  5
206
330
1F
100
AcDbEntity
  8
0
  6
Continuous
 62
     7
370
    15
100
AcDbLine
 10
0.9406033692
 20
0.0601531124
 30
0.0
 11
0.9234006549
 21
0.3353965401
 31
0.0
  0
LINE
  5
207
330
1F
100
AcDbEntity
  8
0
  6
Continuous
 62
     7
370
    15
100
AcDbLine
 10
0.9234006549
 20
0.3353965401
 30
0.0
 11
0.9061979407
 21
0.0601531124
 31
0.0
  0
LINE
  5
208
330
1F
100
AcDbEntity
  8
0
  6
Continuous
 62
     7
370
    15
100
AcDbLine
 10
0.8061979407
 20
-0.1893600322
 30
0.0
 11
0.8234006549
 21
-0.4646034599
 31
0.0
  0
LINE
  5
209
330
1F
100
AcDbEntity
  8
0
  6
Continuous
 62
     7
370
    15
100
AcDbLine
 10
0.8234006549
 20
-0.4646034599
 30
0.0
 11
0.8406033692
 21
-0.1893600322
 31
0.0
  0
LINE
  5
20A
330
1F
100
AcDbEntity
  8
0
  6
Continuous
 62
     7
370
    15
100
AcDbLine
 10
0.8406033692
 20
0.0601531124
 30
0.0
 11
0.8234006549
 21
0.3353965401
 31
0.0
  0
LINE
  5
20B
330
1F
100
AcDbEntity
  8
0
  6
Continuous
 62
     7
370
    15
100
AcDbLine
 10
0.8234006549
 20
0.3353965401
 30
0.0
 11
0.8061979407
 21
0.0601531124
 31
0.0
  0
LINE
  5
20C
330
1F
100
AcDbEntity
  8
0
  6
Continuous
 62
     7
370
    15
100
AcDbLine
 10
0.7061979407
 20
-0.1893600322
 30
0.0
 11
0.7234006549
 21
-0.4646034599
 31
0.0
  0
LINE
  5
20D
330
1F
100
AcDbEntity
  8
0
  6
Continuous
 62
     7
370
    15
100
AcDbLine
 10
0.7234006549
 20
-0.4646034599
 30
0.0
 11
0.7406033692
 21
-0.1893600322
 31
0.0
  0
LINE
  5
20E
330
1F
100
AcDbEntity
  8
0
  6
Continuous
 62
     7
370
    15
100
AcDbLine
 10
0.7406033692
 20
0.0601531124
 30
0.0
 11
0.7234006549
 21
0.3353965401
 31
0.0
  0
LINE
  5
20F
330
1F
100
AcDbEntity
  8
0
  6
Continuous
 62
     7
370
    15
100
AcDbLine
 10
0.7234006549
 20
0.3353965401
 30
0.0
 11
0.7061979407
 21
0.0601531124
 31
0.0
  0
LINE
  5
210
330
1F
100
AcDbEntity
  8
0
  6
Continuous
 62
     7
370
    15
100
AcDbLine
 10
0.6061979407
 20
-0.1893600322
 30
0.0
 11
0.6234006549
 21
-0.4646034599
 31
0.0
  0
LINE
  5
211
330
1F
100
AcDbEntity
  8
0
  6
Continuous
 62
     7
370
    15
100
AcDbLine
 10
0.6234006549
 20
-0.4646034599
 30
0.0
 11
0.6406033692
 21
-0.1893600322
 31
0.0
  0
LINE
  5
212
330
1F
100
AcDbEntity
  8
0
  6
Continuous
 62
     7
370
    15
100
AcDbLine
 10
0.6406033692
 20
0.0601531124
 30
0.0
 11
0.6234006549
 21
0.3353965401
 31
0.0
  0
LINE
  5
213
330
1F
100
AcDbEntity
  8
0
  6
Continuous
 62
     7
370
    15
100
AcDbLine
 10
0.6234006549
 20
0.3353965401
 30
0.0
 11
0.6061979407
 21
0.0601531124
 31
0.0
  0
LINE
  5
214
330
1F
100
AcDbEntity
  8
0
  6
Continuous
 62
     7
370
    15
100
AcDbLine
 10
0.5061979407
 20
-0.1893600322
 30
0.0
 11
0.5234006549
 21
-0.4646034599
 31
0.0
  0
LINE
  5
215
330
1F
100
AcDbEntity
  8
0
  6
Continuous
 62
     7
370
    15
100
AcDbLine
 10
0.5234006549
 20
-0.4646034599
 30
0.0
 11
0.5406033692
 21
-0.1893600322
 31
0.0
  0
LINE
  5
216
330
1F
100
AcDbEntity
  8
0
  6
Continuous
 62
     7
370
    15
100
AcDbLine
 10
0.5406033692
 20
0.0601531124
 30
0.0
 11
0.5234006549
 21
0.3353965401
 31
0.0
  0
LINE
  5
217
330
1F
100
AcDbEntity
  8
0
  6
Continuous
 62
     7
370
    15
100
AcDbLine
 10
0.5234006549
 20
0.3353965401
 30
0.0
 11
0.5061979407
 21
0.0601531124
 31
0.0
  0
LINE
  5
218
330
1F
100
AcDbEntity
  8
0
  6
Continuous
 62
     7
370
    15
100
AcDbLine
 10
0.4061979407
 20
-0.1893600322
 30
0.0
 11
0.4234006549
 21
-0.4646034599
 31
0.0
  0
LINE
  5
219
330
1F
100
AcDbEntity
  8
0
  6
Continuous
 62
     7
370
    15
100
AcDbLine
 10
0.4234006549
 20
-0.4646034599
 30
0.0
 11
0.4406033692
 21
-0.1893600322
 31
0.0
  0
LINE
  5
21A
330
1F
100
AcDbEntity
  8
0
  6
Continuous
 62
     7
370
    15
100
AcDbLine
 10
0.4406033692
 20
0.0601531124
 30
0.0
 11
0.4234006549
 21
0.3353965401
 31
0.0
  0
LINE
  5
21B
330
1F
100
AcDbEntity
  8
0
  6
Continuous
 62
     7
370
    15
100
AcDbLine
 10
0.4234006549
 20
0.3353965401
 30
0.0
 11
0.4061979407
 21
0.0601531124
 31
0.0
  0
LINE
  5
21C
330
1F
100
AcDbEntity
  8
0
  6
Continuous
 62
     7
370
    15
100
AcDbLine
 10
0.3061979407
 20
-0.1893600322
 30
0.0
 11
0.3234006549
 21
-0.4646034599
 31
0.0
  0
LINE
  5
21D
330
1F
100
AcDbEntity
  8
0
  6
Continuous
 62
     7
370
    15
100
AcDbLine
 10
0.3234006549
 20
-0.4646034599
 30
0.0
 11
0.3406033692
 21
-0.1893600322
 31
0.0
  0
LINE
  5
21E
330
1F
100
AcDbEntity
  8
0
  6
Continuous
 62
     7
370
    15
100
AcDbLine
 10
0.3406033692
 20
0.0601531124
 30
0.0
 11
0.3234006549
 21
0.3353965401
 31
0.0
  0
LINE
  5
21F
330
1F
100
AcDbEntity
  8
0
  6
Continuous
 62
     7
370
    15
100
AcDbLine
 10
0.3234006549
 20
0.3353965401
 30
0.0
 11
0.3061979407
 21
0.0601531124
 31
0.0
  0
LINE
  5
220
330
1F
100
AcDbEntity
  8
0
  6
Continuous
 62
     7
370
    15
100
AcDbLine
 10
0.2061979407
 20
-0.1893600322
 30
0.0
 11
0.2234006549
 21
-0.4646034599
 31
0.0
  0
LINE
  5
221
330
1F
100
AcDbEntity
  8
0
  6
Continuous
 62
     7
370
    15
100
AcDbLine
 10
0.2234006549
 20
-0.4646034599
 30
0.0
 11
0.2406033692
 21
-0.1893600322
 31
0.0
  0
LINE
  5
222
330
1F
100
AcDbEntity
  8
0
  6
Continuous
 62
     7
370
    15
100
AcDbLine
 10
0.2406033692
 20
0.0601531124
 30
0.0
 11
0.2234006549
 21
0.3353965401
 31
0.0
  0
LINE
  5
223
330
1F
100
AcDbEntity
  8
0
  6
Continuous
 62
     7
370
    15
100
AcDbLine
 10
0.2234006549
 20
0.3353965401
 30
0.0
 11
0.2061979407
 21
0.0601531124
 31
0.0
  0
LINE
  5
224
330
1F
100
AcDbEntity
  8
0
  6
Continuous
 62
     7
370
    15
100
AcDbLine
 10
0.1061979407
 20
-0.1893600322
 30
0.0
 11
0.1234006549
 21
-0.4646034599
 31
0.0
  0
LINE
  5
225
330
1F
100
AcDbEntity
  8
0
  6
Continuous
 62
     7
370
    15
100
AcDbLine
 10
0.1234006549
 20
-0.4646034599
 30
0.0
 11
0.1406033692
 21
-0.1893600322
 31
0.0
  0
LINE
  5
226
330
1F
100
AcDbEntity
  8
0
  6
Continuous
 62
     7
370
    15
100
AcDbLine
 10
0.1406033692
 20
0.0601531124
 30
0.0
 11
0.1234006549
 21
0.3353965401
 31
0.0
  0
LINE
  5
227
330
1F
100
AcDbEntity
  8
0
  6
Continuous
 62
     7
370
    15
100
AcDbLine
 10
0.1234006549
 20
0.3353965401
 30
0.0
 11
0.1061979407
 21
0.0601531124
 31
0.0
  0
LINE
  5
228
330
1F
100
AcDbEntity
  8
0
  6
Continuous
 62
     7
370
    15
100
AcDbLine
 10
0.0061979407
 20
-0.1893600322
 30
0.0
 11
0.0234006549
 21
-0.4646034599
 31
0.0
  0
LINE
  5
229
330
1F
100
AcDbEntity
  8
0
  6
Continuous
 62
     7
370
    15
100
AcDbLine
 10
0.0234006549
 20
-0.4646034599
 30
0.0
 11
0.0406033692
 21
-0.1893600322
 31
0.0
  0
LINE
  5
22A
330
1F
100
AcDbEntity
  8
0
  6
Continuous
 62
     7
370
    15
100
AcDbLine
 10
0.0406033692
 20
0.0601531124
 30
0.0
 11
0.0234006549
 21
0.3353965401
 31
0.0
  0
LINE
  5
22B
330
1F
100
AcDbEntity
  8
0
  6
Continuous
 62
     7
370
    15
100
AcDbLine
 10
0.0234006549
 20
0.3353965401
 30
0.0
 11
0.0061979407
 21
0.0601531124
 31
0.0
  0
LINE
  5
22C
330
1F
100
AcDbEntity
  8
0
  6
Continuous
 62
     7
370
    15
100
AcDbLine
 10
-0.0938020593
 20
-0.1893600322
 30
0.0
 11
-0.0765993451
 21
-0.4646034599
 31
0.0
  0
LINE
  5
22D
330
1F
100
AcDbEntity
  8
0
  6
Continuous
 62
     7
370
    15
100
AcDbLine
 10
-0.0765993451
 20
-0.4646034599
 30
0.0
 11
-0.0593966308
 21
-0.1893600322
 31
0.0
  0
LINE
  5
22E
330
1F
100
AcDbEntity
  8
0
  6
Continuous
 62
     7
370
    15
100
AcDbLine
 10
-0.0593966308
 20
0.0601531124
 30
0.0
 11
-0.0765993451
 21
0.3353965401
 31
0.0
  0
LINE
  5
22F
330
1F
100
AcDbEntity
  8
0
  6
Continuous
 62
     7
370
    15
100
AcDbLine
 10
-0.0765993451
 20
0.3353965401
 30
0.0
 11
-0.0938020593
 21
0.0601531124
 31
0.0
  0
LINE
  5
230
330
1F
100
AcDbEntity
  8
0
  6
Continuous
 62
     7
370
    15
100
AcDbLine
 10
-0.1938020593
 20
-0.1893600322
 30
0.0
 11
-0.1765993451
 21
-0.4646034599
 31
0.0
  0
LINE
  5
231
330
1F
100
AcDbEntity
  8
0
  6
Continuous
 62
     7
370
    15
100
AcDbLine
 10
-0.1765993451
 20
-0.4646034599
 30
0.0
 11
-0.1593966308
 21
-0.1893600322
 31
0.0
  0
LINE
  5
232
330
1F
100
AcDbEntity
  8
0
  6
Continuous
 62
     7
370
    15
100
AcDbLine
 10
-0.1593966308
 20
0.0601531124
 30
0.0
 11
-0.1765993451
 21
0.3353965401
 31
0.0
  0
LINE
  5
233
330
1F
100
AcDbEntity
  8
0
  6
Continuous
 62
     7
370
    15
100
AcDbLine
 10
-0.1765993451
 20
0.3353965401
 30
0.0
 11
-0.1938020593
 21
0.0601531124
 31
0.0
  0
LINE
  5
234
330
1F
100
AcDbEntity
  8
0
  6
Continuous
 62
     7
370
    15
100
AcDbLine
 10
-0.2938020593
 20
-0.1893600322
 30
0.0
 11
-0.2765993451
 21
-0.4646034599
 31
0.0
  0
LINE
  5
235
330
1F
100
AcDbEntity
  8
0
  6
Continuous
 62
     7
370
    15
100
AcDbLine
 10
-0.2765993451
 20
-0.4646034599
 30
0.0
 11
-0.2593966308
 21
-0.1893600322
 31
0.0
  0
LINE
  5
236
330
1F
100
AcDbEntity
  8
0
  6
Continuous
 62
     7
370
    15
100
AcDbLine
 10
-0.2593966308
 20
0.0601531124
 30
0.0
 11
-0.2765993451
 21
0.3353965401
 31
0.0
  0
LINE
  5
237
330
1F
100
AcDbEntity
  8
0
  6
Continuous
 62
     7
370
    15
100
AcDbLine
 10
-0.2765993451
 20
0.3353965401
 30
0.0
 11
-0.2938020593
 21
0.0601531124
 31
0.0
  0
LINE
  5
238
330
1F
100
AcDbEntity
  8
0
  6
Continuous
 62
     7
370
    15
100
AcDbLine
 10
0.5446791584
 20
0.6456426119
 30
0.0
 11
0.5446791584
 21
0.5275323757
 31
0.0
  0
LINE
  5
239
330
1F
100
AcDbEntity
  8
0
  6
Continuous
 62
     7
370
    15
100
AcDbLine
 10
1.6696791584
 20
1.128585356
 30
0.0
 11
1.5515689222
 21
1.128585356
 31
0.0
  0
LINE
  5
23A
330
1F
100
AcDbEntity
  8
0
  6
Continuous
 62
     7
370
    15
100
AcDbLine
 10
1.0446791584
 20
0.6456426119
 30
0.0
 11
1.5515689222
 21
0.6456426119
 31
0.0
  0
LINE
  5
23B
330
1F
100
AcDbEntity
  8
0
  6
Continuous
 62
     7
370
    15
100
AcDbLine
 10
1.0446791584
 20
0.5275323757
 30
0.0
 11
1.0446791584
 21
0.6456426119
 31
0.0
  0
LINE
  5
23C
330
1F
100
AcDbEntity
  8
0
  6
Continuous
 62
     7
370
    15
100
AcDbLine
 10
0.5446791584
 20
0.5275323757
 30
0.0
 11
1.0446791584
 21
0.5275323757
 31
0.0
  0
LINE
  5
23D
330
1F
100
AcDbEntity
  8
0
  6
Continuous
 62
     7
370
    15
100
AcDbLine
 10
-0.0803208416
 20
0.6456426119
 30
0.0
 11
0.5446791584
 21
0.6456426119
 31
0.0
  0
LINE
  5
23E
330
1F
100
AcDbEntity
  8
0
  6
Continuous
 62
     7
370
    15
100
AcDbLine
 10
1.5515689222
 20
1.128585356
 30
0.0
 11
1.5515689222
 21
1.4094221394
 31
0.0
  0
LINE
  5
23F
330
1F
100
AcDbEntity
  8
0
  6
Continuous
 62
     7
370
    15
100
AcDbLine
 10
1.6696791584
 20
0.928585356
 30
0.0
 11
1.6696791584
 21
1.128585356
 31
0.0
  0
LINE
  5
240
330
1F
100
AcDbEntity
  8
0
  6
Continuous
 62
     7
370
    15
100
AcDbLine
 10
1.5515689222
 20
0.928585356
 30
0.0
 11
1.6696791584
 21
0.928585356
 31
0.0
  0
LINE
  5
241
330
1F
100
AcDbEntity
  8
0
  6
Continuous
 62
     7
370
    15
100
AcDbLine
 10
1.5515689222
 20
0.6456426119
 30
0.0
 11
1.5515689222
 21
0.928585356
 31
0.0
  0
ARC
  5
242
330
1F
100
AcDbEntity
  8
0
  6
Continuous
 62
     7
370
    15
100
AcDbCircle
 10
-0.1985522023
 20
-1.1504093864
 30
0.0
 40
0.07
100
AcDbArc
 50
32.4730004485
 51
327.5269995515
  0
ARC
  5
243
330
1F
100
AcDbEntity
  8
0
  6
Continuous
 62
     7
370
    15
100
AcDbCircle
 10
-1.080441966
 20
-1.1504093864
 30
0.0
 40
0.0700000000000004
100
AcDbArc
 50
212.4730004485
 51
147.5269995515
  0
ARC
  5
244
330
1F
100
AcDbEntity
  8
0
  6
Continuous
 62
     7
370
    15
100
AcDbCircle
 10
3.0023030977
 20
-0.0646034599
 30
0.0
 40
1.99999999999989
100
AcDbArc
 50
176.423665625
 51
183.576334375
  0
ARC
  5
245
330
1F
100
AcDbEntity
  8
0
  6
Continuous
 62
     7
370
    15
100
AcDbCircle
 10
-0.9555017878
 20
-0.0646034599
 30
0.0
 40
1.999999999999888
100
AcDbArc
 50
356.423665625
 51
3.576334375
  0
ARC
  5
246
330
1F
100
AcDbEntity
  8
0
  6
Continuous
 62
     7
370
    15
100
AcDbCircle
 10
2.9023030977
 20
-0.0646034599
 30
0.0
 40
1.999999999999916
100
AcDbArc
 50
176.423665625
 51
183.576334375
  0
ARC
  5
247
330
1F
100
AcDbEntity
  8
0
  6
Continuous
 62
     7
370
    15
100
AcDbCircle
 10
-1.0555017878
 20
-0.0646034599
 30
0.0
 40
1.999999999999835
100
AcDbArc
 50
356.423665625
 51
3.576334375
  0
ARC
  5
248
330
1F
100
AcDbEntity
  8
0
  6
Continuous
 62
     7
370
    15
100
AcDbCircle
 10
2.8023030977
 20
-0.0646034599
 30
0.0
 40
1.999999999999916
100
AcDbArc
 50
176.423665625
 51
183.576334375
  0
ARC
  5
249
330
1F
100
AcDbEntity
  8
0
  6
Continuous
 62
     7
370
    15
100
AcDbCircle
 10
-1.1555017878
 20
-0.0646034599
 30
0.0
 40
1.999999999999844
100
AcDbArc
 50
356.423665625
 51
3.576334375
  0
ARC
  5
24A
330
1F
100
AcDbEntity
  8
0
  6
Continuous
 62
     7
370
    15
100
AcDbCircle
 10
2.7023030977
 20
-0.0646034599
 30
0.0
 40
1.999999999999846
100
AcDbArc
 50
176.423665625
 51
183.576334375
  0
ARC
  5
24B
330
1F
100
AcDbEntity
  8
0
  6
Continuous
 62
     7
370
    15
100
AcDbCircle
 10
-1.2555017878
 20
-0.0646034599
 30
0.0
 40
1.999999999999809
100
AcDbArc
 50
356.423665625
 51
3.576334375
  0
ARC
  5
24C
330
1F
100
AcDbEntity
  8
0
  6
Continuous
 62
     7
370
    15
100
AcDbCircle
 10
2.6023030977
 20
-0.0646034599
 30
0.0
 40
1.999999999999897
100
AcDbArc
 50
176.423665625
 51
183.576334375
  0
ARC
  5
24D
330
1F
100
AcDbEntity
  8
0
  6
Continuous
 62
     7
370
    15
100
AcDbCircle
 10
-1.3555017878
 20
-0.0646034599
 30
0.0
 40
1.999999999999844
100
AcDbArc
 50
356.423665625
 51
3.576334375
  0
ARC
  5
24E
330
1F
100
AcDbEntity
  8
0
  6
Continuous
 62
     7
370
    15
100
AcDbCircle
 10
2.5023030977
 20
-0.0646034599
 30
0.0
 40
1.999999999999871
100
AcDbArc
 50
176.423665625
 51
183.576334375
  0
ARC
  5
24F
330
1F
100
AcDbEntity
  8
0
  6
Continuous
 62
     7
370
    15
100
AcDbCircle
 10
-1.4555017878
 20
-0.0646034599
 30
0.0
 40
1.999999999999781
100
AcDbArc
 50
356.423665625
 51
3.576334375
  0
ARC
  5
250
330
1F
100
AcDbEntity
  8
0
  6
Continuous
 62
     7
370
    15
100
AcDbCircle
 10
2.4023030977
 20
-0.0646034599
 30
0.0
 40
1.999999999999854
100
AcDbArc
 50
176.423665625
 51
183.576334375
  0
ARC
  5
251
330
1F
100
AcDbEntity
  8
0
  6
Continuous
 62
     7
370
    15
100
AcDbCircle
 10
-1.5555017878
 20
-0.0646034599
 30
0.0
 40
1.99999999999983
100
AcDbArc
 50
356.423665625
 51
3.576334375
  0
ARC
  5
252
330
1F
100
AcDbEntity
  8
0
  6
Continuous
 62
     7
370
    15
100
AcDbCircle
 10
2.3023030977
 20
-0.0646034599
 30
0.0
 40
1.999999999999866
100
AcDbArc
 50
176.423665625
 51
183.576334375
  0
ARC
  5
253
330
1F
100
AcDbEntity
  8
0
  6
Continuous
 62
     7
370
    15
100
AcDbCircle
 10
-1.6555017878
 20
-0.0646034599
 30
0.0
 40
1.999999999999821
100
AcDbArc
 50
356.423665625
 51
3.576334375
  0
ARC
  5
254
330
1F
100
AcDbEntity
  8
0
  6
Continuous
 62
     7
370
    15
100
AcDbCircle
 10
2.2023030977
 20
-0.0646034599
 30
0.0
 40
1.999999999999851
100
AcDbArc
 50
176.423665625
 51
183.576334375
  0
ARC
  5
255
330
1F
100
AcDbEntity
  8
0
  6
Continuous
 62
     7
370
    15
100
AcDbCircle
 10
-1.7555017878
 20
-0.0646034599
 30
0.0
 40
1.999999999999841
100
AcDbArc
 50
356.423665625
 51
3.576334375
  0
ARC
  5
256
330
1F
100
AcDbEntity
  8
0
  6
Continuous
 62
     7
370
    15
100
AcDbCircle
 10
2.1023030977
 20
-0.0646034599
 30
0.0
 40
1.999999999999851
100
AcDbArc
 50
176.423665625
 51
183.576334375
  0
ARC
  5
257
330
1F
100
AcDbEntity
  8
0
  6
Continuous
 62
     7
370
    15
100
AcDbCircle
 10
-1.8555017878
 20
-0.0646034599
 30
0.0
 40
1.999999999999835
100
AcDbArc
 50
356.423665625
 51
3.576334375
  0
ARC
  5
258
330
1F
100
AcDbEntity
  8
0
  6
Continuous
 62
     7
370
    15
100
AcDbCircle
 10
2.0023030977
 20
-0.0646034599
 30
0.0
 40
1.999999999999863
100
AcDbArc
 50
176.423665625
 51
183.576334375
  0
ARC
  5
259
330
1F
100
AcDbEntity
  8
0
  6
Continuous
 62
     7
370
    15
100
AcDbCircle
 10
-1.9555017878
 20
-0.0646034599
 30
0.0
 40
1.99999999999984
100
AcDbArc
 50
356.423665625
 51
3.576334375
  0
ARC
  5
25A
330
1F
100
AcDbEntity
  8
0
  6
Continuous
 62
     7
370
    15
100
AcDbCircle
 10
1.9023030977
 20
-0.0646034599
 30
0.0
 40
1.99999999999986
100
AcDbArc
 50
176.423665625
 51
183.576334375
  0
ARC
  5
25B
330
1F
100
AcDbEntity
  8
0
  6
Continuous
 62
     7
370
    15
100
AcDbCircle
 10
-2.0555017878
 20
-0.0646034599
 30
0.0
 40
1.999999999999834
100
AcDbArc
 50
356.423665625
 51
3.576334375
  0
ARC
  5
25C
330
1F
100
AcDbEntity
  8
0
  6
Continuous
 62
     7
370
    15
100
AcDbCircle
 10
1.8023030977
 20
-0.0646034599
 30
0.0
 40
1.999999999999736
100
AcDbArc
 50
176.423665625
 51
183.576334375
  0
ARC
  5
25D
330
1F
100
AcDbEntity
  8
0
  6
Continuous
 62
     7
370
    15
100
AcDbCircle
 10
-2.1555017878
 20
-0.0646034599
 30
0.0
 40
1.999999999999759
100
AcDbArc
 50
356.423665625
 51
3.576334375
  0
ARC
  5
25E
330
1F
100
AcDbEntity
  8
0
  6
Continuous
 62
     7
370
    15
100
AcDbCircle
 10
1.7023030977
 20
-0.0646034599
 30
0.0
 40
1.99999999999975
100
AcDbArc
 50
176.423665625
 51
183.576334375
  0
ARC
  5
25F
330
1F
100
AcDbEntity
  8
0
  6
Continuous
 62
     7
370
    15
100
AcDbCircle
 10
-2.2555017878
 20
-0.0646034599
 30
0.0
 40
1.99999999999977
100
AcDbArc
 50
356.423665625
 51
3.576334375
  0
ARC
  5
260
330
1F
100
AcDbEntity
  8
0
  6
Continuous
 62
     7
370
    15
100
AcDbCircle
 10
1.6785933933
 20
-0.9872139998
 30
0.0
 40
2.399999999999966
100
AcDbArc
 50
93.0339034524
 51
137.1284595507
  0
MTEXT
  5
458
330
1F
100
AcDbEntity
  8
0
  6
Continuous
 62
     7
100
AcDbMText
 10
-1.1394970842
 20
-1.6944977972
 30
0.0
 40
0.1903
 41
0.0
 71
     1
 72
     1
  1
SolidWorks Educational Edition.
  7
SLDTEXTSTYLE0
 73
     1
 44
1.0
  0
MTEXT
  5
459
330
1F
100
AcDbEntity
  8
0
  6
Continuous
 62
     7
100
AcDbMText
 10
-1.1394970842
 20
-1.9799477972
 30
0.0
 40
0.1903
 41
0.0
 71
     1
 72
     1
  1
For Instructional Use Only.
  7
SLDTEXTSTYLE0
 73
     1
 44
1.0
  0
LINE
  5
35A
330
1B
100
AcDbEntity
 67
     1
  8
0
  6
Continuous
 62
     7
370
    15
100
AcDbLine
 10
1.6582176816
 20
-0.9043573881
 30
0.0
 11
1.6582176816
 21
-0.6543573881
 31
0.0
  0
LINE
  5
35B
330
1B
100
AcDbEntity
 67
     1
  8
0
  6
Continuous
 62
     7
370
    15
100
AcDbLine
 10
0.5332176816
 20
-1.6134125062
 30
0.0
 11
1.0332176816
 21
-1.6134125062
 31
0.0
  0
LINE
  5
35C
330
1B
100
AcDbEntity
 67
     1
  8
0
  6
Continuous
 62
     7
370
    15
100
AcDbLine
 10
1.6582176816
 20
-0.6543573881
 30
0.0
 11
-0.0917823184
 21
-0.6543573881
 31
0.0
  0
LINE
  5
35D
330
1B
100
AcDbEntity
 67
     1
  8
0
  6
Continuous
 62
     7
370
    15
100
AcDbLine
 10
1.5401074453
 20
-0.9043573881
 30
0.0
 11
1.6582176816
 21
-0.9043573881
 31
0.0
  0
LINE
  5
35E
330
1B
100
AcDbEntity
 67
     1
  8
0
  6
Continuous
 62
     7
370
    15
100
AcDbLine
 10
1.5401074453
 20
-1.0793573881
 30
0.0
 11
1.5401074453
 21
-0.9043573881
 31
0.0
  0
LINE
  5
35F
330
1B
100
AcDbEntity
 67
     1
  8
0
  6
Continuous
 62
     7
370
    15
100
AcDbLine
 10
1.4241625634
 20
-1.0793573881
 30
0.0
 11
1.5401074453
 21
-1.0793573881
 31
0.0
  0
LINE
  5
360
330
1B
100
AcDbEntity
 67
     1
  8
0
  6
Continuous
 62
     7
370
    15
100
AcDbLine
 10
1.4241625634
 20
-0.9543573881
 30
0.0
 11
1.4241625634
 21
-1.0793573881
 31
0.0
  0
LINE
  5
361
330
1B
100
AcDbEntity
 67
     1
  8
0
  6
Continuous
 62
     7
370
    15
100
AcDbLine
 10
1.2741625634
 20
-0.9543573881
 30
0.0
 11
1.4241625634
 21
-0.9543573881
 31
0.0
  0
LINE
  5
362
330
1B
100
AcDbEntity
 67
     1
  8
0
  6
Continuous
 62
     7
370
    15
100
AcDbLine
 10
1.2741625634
 20
-1.0793573881
 30
0.0
 11
1.2741625634
 21
-0.9543573881
 31
0.0
  0
LINE
  5
363
330
1B
100
AcDbEntity
 67
     1
  8
0
  6
Continuous
 62
     7
370
    15
100
AcDbLine
 10
1.1582176816
 20
-1.0793573881
 30
0.0
 11
1.2741625634
 21
-1.0793573881
 31
0.0
  0
LINE
  5
364
330
1B
100
AcDbEntity
 67
     1
  8
0
  6
Continuous
 62
     7
370
    15
100
AcDbLine
 10
1.1582176816
 20
-1.2293573881
 30
0.0
 11
1.1582176816
 21
-1.0793573881
 31
0.0
  0
LINE
  5
365
330
1B
100
AcDbEntity
 67
     1
  8
0
  6
Continuous
 62
     7
370
    15
100
AcDbLine
 10
1.2741625634
 20
-1.2293573881
 30
0.0
 11
1.1582176816
 21
-1.2293573881
 31
0.0
  0
LINE
  5
366
330
1B
100
AcDbEntity
 67
     1
  8
0
  6
Continuous
 62
     7
370
    15
100
AcDbLine
 10
1.2741625634
 20
-1.3543573881
 30
0.0
 11
1.2741625634
 21
-1.2293573881
 31
0.0
  0
LINE
  5
367
330
1B
100
AcDbEntity
 67
     1
  8
0
  6
Continuous
 62
     7
370
    15
100
AcDbLine
 10
1.4241625634
 20
-1.3543573881
 30
0.0
 11
1.2741625634
 21
-1.3543573881
 31
0.0
  0
LINE
  5
368
330
1B
100
AcDbEntity
 67
     1
  8
0
  6
Continuous
 62
     7
370
    15
100
AcDbLine
 10
1.4241625634
 20
-1.2293573881
 30
0.0
 11
1.4241625634
 21
-1.3543573881
 31
0.0
  0
LINE
  5
369
330
1B
100
AcDbEntity
 67
     1
  8
0
  6
Continuous
 62
     7
370
    15
100
AcDbLine
 10
1.5401074453
 20
-1.2293573881
 30
0.0
 11
1.4241625634
 21
-1.2293573881
 31
0.0
  0
LINE
  5
36A
330
1B
100
AcDbEntity
 67
     1
  8
0
  6
Continuous
 62
     7
370
    15
100
AcDbLine
 10
1.5401074453
 20
-1.4043573881
 30
0.0
 11
1.5401074453
 21
-1.2293573881
 31
0.0
  0
LINE
  5
36B
330
1B
100
AcDbEntity
 67
     1
  8
0
  6
Continuous
 62
     7
370
    15
100
AcDbLine
 10
1.6582176816
 20
-1.4043573881
 30
0.0
 11
1.5401074453
 21
-1.4043573881
 31
0.0
  0
LINE
  5
36C
330
1B
100
AcDbEntity
 67
     1
  8
0
  6
Continuous
 62
     7
370
    15
100
AcDbLine
 10
1.6582176816
 20
-1.6543573881
 30
0.0
 11
1.6582176816
 21
-1.4043573881
 31
0.0
  0
LINE
  5
36D
330
1B
100
AcDbEntity
 67
     1
  8
0
  6
Continuous
 62
     7
370
    15
100
AcDbLine
 10
-0.0917823184
 20
-1.6543573881
 30
0.0
 11
1.6582176816
 21
-1.6543573881
 31
0.0
  0
LINE
  5
36E
330
1B
100
AcDbEntity
 67
     1
  8
0
  6
Continuous
 62
     7
370
    15
100
AcDbLine
 10
-0.0917823184
 20
-0.6543573881
 30
0.0
 11
-0.0917823184
 21
-1.6543573881
 31
0.0
  0
LINE
  5
36F
330
1B
100
AcDbEntity
 67
     1
  8
0
  6
Continuous
 62
     7
370
    15
100
AcDbLine
 10
1.0332176816
 20
-1.49530227
 30
0.0
 11
0.5332176816
 21
-1.49530227
 31
0.0
  0
LINE
  5
370
330
1B
100
AcDbEntity
 67
     1
  8
0
  6
Continuous
 62
     7
370
    15
100
AcDbLine
 10
0.5332176816
 20
-1.49530227
 30
0.0
 11
0.5332176816
 21
-1.6134125062
 31
0.0
  0
LINE
  5
371
330
1B
100
AcDbEntity
 67
     1
  8
0
  6
Continuous
 62
     7
370
    15
100
AcDbLine
 10
1.0332176816
 20
-1.6134125062
 30
0.0
 11
1.0332176816
 21
-1.49530227
 31
0.0
  0
LINE
  5
372
330
1B
100
AcDbEntity
 67
     1
  8
0
  6
Continuous
 62
     7
370
    15
100
AcDbLine
 10
-0.1394970842
 20
-1.1879925345
 30
0.0
 11
-0.1394970842
 21
-1.4004093864
 31
0.0
  0
LINE
  5
373
330
1B
100
AcDbEntity
 67
     1
  8
0
  6
Continuous
 62
     7
370
    15
100
AcDbLine
 10
-0.2576073204
 20
-1.4004093864
 30
0.0
 11
-0.1394970842
 21
-1.4004093864
 31
0.0
  0
LINE
  5
374
330
1B
100
AcDbEntity
 67
     1
  8
0
  6
Continuous
 62
     7
370
    15
100
AcDbLine
 10
-0.2576073204
 20
-1.6504093864
 30
0.0
 11
-0.2576073204
 21
-1.4004093864
 31
0.0
  0
LINE
  5
375
330
1B
100
AcDbEntity
 67
     1
  8
0
  6
Continuous
 62
     7
370
    15
100
AcDbLine
 10
-0.2576073204
 20
-1.6504093864
 30
0.0
 11
-1.0213868479
 21
-1.6504093864
 31
0.0
  0
LINE
  5
376
330
1B
100
AcDbEntity
 67
     1
  8
0
  6
Continuous
 62
     7
370
    15
100
AcDbLine
 10
-1.0213868479
 20
-1.4004093864
 30
0.0
 11
-1.0213868479
 21
-1.6504093864
 31
0.0
  0
LINE
  5
377
330
1B
100
AcDbEntity
 67
     1
  8
0
  6
Continuous
 62
     7
370
    15
100
AcDbLine
 10
-1.1394970842
 20
-1.4004093864
 30
0.0
 11
-1.0213868479
 21
-1.4004093864
 31
0.0
  0
LINE
  5
378
330
1B
100
AcDbEntity
 67
     1
  8
0
  6
Continuous
 62
     7
370
    15
100
AcDbLine
 10
-1.1394970842
 20
-1.4004093864
 30
0.0
 11
-1.1394970842
 21
-1.1879925345
 31
0.0
  0
LINE
  5
379
330
1B
100
AcDbEntity
 67
     1
  8
0
  6
Continuous
 62
     7
370
    15
100
AcDbLine
 10
-1.1394970842
 20
-1.1128262382
 30
0.0
 11
-1.1394970842
 21
-0.9004093864
 31
0.0
  0
LINE
  5
37A
330
1B
100
AcDbEntity
 67
     1
  8
0
  6
Continuous
 62
     7
370
    15
100
AcDbLine
 10
-1.0213868479
 20
-0.9004093864
 30
0.0
 11
-1.1394970842
 21
-0.9004093864
 31
0.0
  0
LINE
  5
37B
330
1B
100
AcDbEntity
 67
     1
  8
0
  6
Continuous
 62
     7
370
    15
100
AcDbLine
 10
-1.0213868479
 20
-0.6504093864
 30
0.0
 11
-1.0213868479
 21
-0.9004093864
 31
0.0
  0
LINE
  5
37C
330
1B
100
AcDbEntity
 67
     1
  8
0
  6
Continuous
 62
     7
370
    15
100
AcDbLine
 10
-1.0213868479
 20
-0.6504093864
 30
0.0
 11
-0.2576073204
 21
-0.6504093864
 31
0.0
  0
LINE
  5
37D
330
1B
100
AcDbEntity
 67
     1
  8
0
  6
Continuous
 62
     7
370
    15
100
AcDbLine
 10
-0.2576073204
 20
-0.9004093864
 30
0.0
 11
-0.2576073204
 21
-0.6504093864
 31
0.0
  0
LINE
  5
37E
330
1B
100
AcDbEntity
 67
     1
  8
0
  6
Continuous
 62
     7
370
    15
100
AcDbLine
 10
-0.1394970842
 20
-0.9004093864
 30
0.0
 11
-0.2576073204
 21
-0.9004093864
 31
0.0
  0
LINE
  5
37F
330
1B
100
AcDbEntity
 67
     1
  8
0
  6
Continuous
 62
     7
370
    15
100
AcDbLine
 10
-0.1394970842
 20
-0.9004093864
 30
0.0
 11
-0.1394970842
 21
-1.1128262382
 31
0.0
  0
LINE
  5
380
330
1B
100
AcDbEntity
 67
     1
  8
0
  6
Continuous
 62
     7
370
    15
100
AcDbLine
 10
-0.7394970842
 20
-0.6913542683
 30
0.0
 11
-0.5394970842
 21
-0.6913542683
 31
0.0
  0
LINE
  5
381
330
1B
100
AcDbEntity
 67
     1
  8
0
  6
Continuous
 62
     7
370
    15
100
AcDbLine
 10
-0.7394970842
 20
-0.8094645045
 30
0.0
 11
-0.7394970842
 21
-0.6913542683
 31
0.0
  0
LINE
  5
382
330
1B
100
AcDbEntity
 67
     1
  8
0
  6
Continuous
 62
     7
370
    15
100
AcDbLine
 10
-0.5394970842
 20
-0.8094645045
 30
0.0
 11
-0.7394970842
 21
-0.8094645045
 31
0.0
  0
LINE
  5
383
330
1B
100
AcDbEntity
 67
     1
  8
0
  6
Continuous
 62
     7
370
    15
100
AcDbLine
 10
-0.5394970842
 20
-0.6913542683
 30
0.0
 11
-0.5394970842
 21
-0.8094645045
 31
0.0
  0
LINE
  5
384
330
1B
100
AcDbEntity
 67
     1
  8
0
  6
Continuous
 62
     7
370
    15
100
AcDbLine
 10
1.0406033692
 20
0.0601531124
 30
0.0
 11
1.0234006549
 21
0.3353965401
 31
0.0
  0
LINE
  5
385
330
1B
100
AcDbEntity
 67
     1
  8
0
  6
Continuous
 62
     7
370
    15
100
AcDbLine
 10
0.2984006549
 20
-0.5646034599
 30
0.0
 11
0.2734006549
 21
-0.1146034599
 31
0.0
  0
LINE
  5
386
330
1B
100
AcDbEntity
 67
     1
  8
0
  6
Continuous
 62
     7
370
    15
100
AcDbLine
 10
-0.3265993451
 20
-0.0146034599
 30
0.0
 11
-0.3015993451
 21
0.4353965401
 31
0.0
  0
LINE
  5
387
330
1B
100
AcDbEntity
 67
     1
  8
0
  6
Continuous
 62
     7
370
    15
100
AcDbLine
 10
-0.5765993451
 20
-0.5646034599
 30
0.0
 11
-0.3515993451
 21
-0.5646034599
 31
0.0
  0
LINE
  5
388
330
1B
100
AcDbEntity
 67
     1
  8
0
  6
Continuous
 62
     7
370
    15
100
AcDbLine
 10
-0.5765993451
 20
0.4353965401
 30
0.0
 11
-0.5765993451
 21
-0.5646034599
 31
0.0
  0
LINE
  5
389
330
1B
100
AcDbEntity
 67
     1
  8
0
  6
Continuous
 62
     7
370
    15
100
AcDbLine
 10
-0.3515993451
 20
0.4353965401
 30
0.0
 11
-0.5765993451
 21
0.4353965401
 31
0.0
  0
LINE
  5
38A
330
1B
100
AcDbEntity
 67
     1
  8
0
  6
Continuous
 62
     7
370
    15
100
AcDbLine
 10
-0.3515993451
 20
0.4353965401
 30
0.0
 11
-0.3265993451
 21
-0.0146034599
 31
0.0
  0
LINE
  5
38B
330
1B
100
AcDbEntity
 67
     1
  8
0
  6
Continuous
 62
     7
370
    15
100
AcDbLine
 10
-0.2515993451
 20
0.4353965401
 30
0.0
 11
-0.3015993451
 21
0.4353965401
 31
0.0
  0
LINE
  5
38C
330
1B
100
AcDbEntity
 67
     1
  8
0
  6
Continuous
 62
     7
370
    15
100
AcDbLine
 10
-0.2515993451
 20
0.4353965401
 30
0.0
 11
-0.2265993451
 21
-0.0146034599
 31
0.0
  0
LINE
  5
38D
330
1B
100
AcDbEntity
 67
     1
  8
0
  6
Continuous
 62
     7
370
    15
100
AcDbLine
 10
-0.2265993451
 20
-0.0146034599
 30
0.0
 11
-0.2015993451
 21
0.4353965401
 31
0.0
  0
LINE
  5
38E
330
1B
100
AcDbEntity
 67
     1
  8
0
  6
Continuous
 62
     7
370
    15
100
AcDbLine
 10
-0.1515993451
 20
0.4353965401
 30
0.0
 11
-0.2015993451
 21
0.4353965401
 31
0.0
  0
LINE
  5
38F
330
1B
100
AcDbEntity
 67
     1
  8
0
  6
Continuous
 62
     7
370
    15
100
AcDbLine
 10
-0.1515993451
 20
0.4353965401
 30
0.0
 11
-0.1265993451
 21
-0.0146034599
 31
0.0
  0
LINE
  5
390
330
1B
100
AcDbEntity
 67
     1
  8
0
  6
Continuous
 62
     7
370
    15
100
AcDbLine
 10
-0.1265993451
 20
-0.0146034599
 30
0.0
 11
-0.1015993451
 21
0.4353965401
 31
0.0
  0
LINE
  5
391
330
1B
100
AcDbEntity
 67
     1
  8
0
  6
Continuous
 62
     7
370
    15
100
AcDbLine
 10
-0.0515993451
 20
0.4353965401
 30
0.0
 11
-0.1015993451
 21
0.4353965401
 31
0.0
  0
LINE
  5
392
330
1B
100
AcDbEntity
 67
     1
  8
0
  6
Continuous
 62
     7
370
    15
100
AcDbLine
 10
-0.0515993451
 20
0.4353965401
 30
0.0
 11
-0.0265993451
 21
-0.0146034599
 31
0.0
  0
LINE
  5
393
330
1B
100
AcDbEntity
 67
     1
  8
0
  6
Continuous
 62
     7
370
    15
100
AcDbLine
 10
-0.0265993451
 20
-0.0146034599
 30
0.0
 11
-0.0015993451
 21
0.4353965401
 31
0.0
  0
LINE
  5
394
330
1B
100
AcDbEntity
 67
     1
  8
0
  6
Continuous
 62
     7
370
    15
100
AcDbLine
 10
0.0484006549
 20
0.4353965401
 30
0.0
 11
-0.0015993451
 21
0.4353965401
 31
0.0
  0
LINE
  5
395
330
1B
100
AcDbEntity
 67
     1
  8
0
  6
Continuous
 62
     7
370
    15
100
AcDbLine
 10
0.0484006549
 20
0.4353965401
 30
0.0
 11
0.0734006549
 21
-0.0146034599
 31
0.0
  0
LINE
  5
396
330
1B
100
AcDbEntity
 67
     1
  8
0
  6
Continuous
 62
     7
370
    15
100
AcDbLine
 10
0.0734006549
 20
-0.0146034599
 30
0.0
 11
0.0984006549
 21
0.4353965401
 31
0.0
  0
LINE
  5
397
330
1B
100
AcDbEntity
 67
     1
  8
0
  6
Continuous
 62
     7
370
    15
100
AcDbLine
 10
0.1484006549
 20
0.4353965401
 30
0.0
 11
0.0984006549
 21
0.4353965401
 31
0.0
  0
LINE
  5
398
330
1B
100
AcDbEntity
 67
     1
  8
0
  6
Continuous
 62
     7
370
    15
100
AcDbLine
 10
0.1484006549
 20
0.4353965401
 30
0.0
 11
0.1734006549
 21
-0.0146034599
 31
0.0
  0
LINE
  5
399
330
1B
100
AcDbEntity
 67
     1
  8
0
  6
Continuous
 62
     7
370
    15
100
AcDbLine
 10
0.1734006549
 20
-0.0146034599
 30
0.0
 11
0.1984006549
 21
0.4353965401
 31
0.0
  0
LINE
  5
39A
330
1B
100
AcDbEntity
 67
     1
  8
0
  6
Continuous
 62
     7
370
    15
100
AcDbLine
 10
0.2484006549
 20
0.4353965401
 30
0.0
 11
0.1984006549
 21
0.4353965401
 31
0.0
  0
LINE
  5
39B
330
1B
100
AcDbEntity
 67
     1
  8
0
  6
Continuous
 62
     7
370
    15
100
AcDbLine
 10
0.2484006549
 20
0.4353965401
 30
0.0
 11
0.2734006549
 21
-0.0146034599
 31
0.0
  0
LINE
  5
39C
330
1B
100
AcDbEntity
 67
     1
  8
0
  6
Continuous
 62
     7
370
    15
100
AcDbLine
 10
0.2734006549
 20
-0.0146034599
 30
0.0
 11
0.2984006549
 21
0.4353965401
 31
0.0
  0
LINE
  5
39D
330
1B
100
AcDbEntity
 67
     1
  8
0
  6
Continuous
 62
     7
370
    15
100
AcDbLine
 10
0.3484006549
 20
0.4353965401
 30
0.0
 11
0.2984006549
 21
0.4353965401
 31
0.0
  0
LINE
  5
39E
330
1B
100
AcDbEntity
 67
     1
  8
0
  6
Continuous
 62
     7
370
    15
100
AcDbLine
 10
0.3484006549
 20
0.4353965401
 30
0.0
 11
0.3734006549
 21
-0.0146034599
 31
0.0
  0
LINE
  5
39F
330
1B
100
AcDbEntity
 67
     1
  8
0
  6
Continuous
 62
     7
370
    15
100
AcDbLine
 10
0.3734006549
 20
-0.0146034599
 30
0.0
 11
0.3984006549
 21
0.4353965401
 31
0.0
  0
LINE
  5
3A0
330
1B
100
AcDbEntity
 67
     1
  8
0
  6
Continuous
 62
     7
370
    15
100
AcDbLine
 10
0.4484006549
 20
0.4353965401
 30
0.0
 11
0.3984006549
 21
0.4353965401
 31
0.0
  0
LINE
  5
3A1
330
1B
100
AcDbEntity
 67
     1
  8
0
  6
Continuous
 62
     7
370
    15
100
AcDbLine
 10
0.4484006549
 20
0.4353965401
 30
0.0
 11
0.4734006549
 21
-0.0146034599
 31
0.0
  0
LINE
  5
3A2
330
1B
100
AcDbEntity
 67
     1
  8
0
  6
Continuous
 62
     7
370
    15
100
AcDbLine
 10
0.4734006549
 20
-0.0146034599
 30
0.0
 11
0.4984006549
 21
0.4353965401
 31
0.0
  0
LINE
  5
3A3
330
1B
100
AcDbEntity
 67
     1
  8
0
  6
Continuous
 62
     7
370
    15
100
AcDbLine
 10
0.5484006549
 20
0.4353965401
 30
0.0
 11
0.4984006549
 21
0.4353965401
 31
0.0
  0
LINE
  5
3A4
330
1B
100
AcDbEntity
 67
     1
  8
0
  6
Continuous
 62
     7
370
    15
100
AcDbLine
 10
0.5484006549
 20
0.4353965401
 30
0.0
 11
0.5734006549
 21
-0.0146034599
 31
0.0
  0
LINE
  5
3A5
330
1B
100
AcDbEntity
 67
     1
  8
0
  6
Continuous
 62
     7
370
    15
100
AcDbLine
 10
0.5734006549
 20
-0.0146034599
 30
0.0
 11
0.5984006549
 21
0.4353965401
 31
0.0
  0
LINE
  5
3A6
330
1B
100
AcDbEntity
 67
     1
  8
0
  6
Continuous
 62
     7
370
    15
100
AcDbLine
 10
0.6484006549
 20
0.4353965401
 30
0.0
 11
0.5984006549
 21
0.4353965401
 31
0.0
  0
LINE
  5
3A7
330
1B
100
AcDbEntity
 67
     1
  8
0
  6
Continuous
 62
     7
370
    15
100
AcDbLine
 10
0.6484006549
 20
0.4353965401
 30
0.0
 11
0.6734006549
 21
-0.0146034599
 31
0.0
  0
LINE
  5
3A8
330
1B
100
AcDbEntity
 67
     1
  8
0
  6
Continuous
 62
     7
370
    15
100
AcDbLine
 10
0.6734006549
 20
-0.0146034599
 30
0.0
 11
0.6984006549
 21
0.4353965401
 31
0.0
  0
LINE
  5
3A9
330
1B
100
AcDbEntity
 67
     1
  8
0
  6
Continuous
 62
     7
370
    15
100
AcDbLine
 10
0.7484006549
 20
0.4353965401
 30
0.0
 11
0.6984006549
 21
0.4353965401
 31
0.0
  0
LINE
  5
3AA
330
1B
100
AcDbEntity
 67
     1
  8
0
  6
Continuous
 62
     7
370
    15
100
AcDbLine
 10
0.7484006549
 20
0.4353965401
 30
0.0
 11
0.7734006549
 21
-0.0146034599
 31
0.0
  0
LINE
  5
3AB
330
1B
100
AcDbEntity
 67
     1
  8
0
  6
Continuous
 62
     7
370
    15
100
AcDbLine
 10
0.7734006549
 20
-0.0146034599
 30
0.0
 11
0.7984006549
 21
0.4353965401
 31
0.0
  0
LINE
  5
3AC
330
1B
100
AcDbEntity
 67
     1
  8
0
  6
Continuous
 62
     7
370
    15
100
AcDbLine
 10
0.8484006549
 20
0.4353965401
 30
0.0
 11
0.7984006549
 21
0.4353965401
 31
0.0
  0
LINE
  5
3AD
330
1B
100
AcDbEntity
 67
     1
  8
0
  6
Continuous
 62
     7
370
    15
100
AcDbLine
 10
0.8484006549
 20
0.4353965401
 30
0.0
 11
0.8734006549
 21
-0.0146034599
 31
0.0
  0
LINE
  5
3AE
330
1B
100
AcDbEntity
 67
     1
  8
0
  6
Continuous
 62
     7
370
    15
100
AcDbLine
 10
0.8734006549
 20
-0.0146034599
 30
0.0
 11
0.8984006549
 21
0.4353965401
 31
0.0
  0
LINE
  5
3AF
330
1B
100
AcDbEntity
 67
     1
  8
0
  6
Continuous
 62
     7
370
    15
100
AcDbLine
 10
0.9484006549
 20
0.4353965401
 30
0.0
 11
0.8984006549
 21
0.4353965401
 31
0.0
  0
LINE
  5
3B0
330
1B
100
AcDbEntity
 67
     1
  8
0
  6
Continuous
 62
     7
370
    15
100
AcDbLine
 10
0.9484006549
 20
0.4353965401
 30
0.0
 11
0.9734006549
 21
-0.0146034599
 31
0.0
  0
LINE
  5
3B1
330
1B
100
AcDbEntity
 67
     1
  8
0
  6
Continuous
 62
     7
370
    15
100
AcDbLine
 10
0.9734006549
 20
-0.0146034599
 30
0.0
 11
0.9984006549
 21
0.4353965401
 31
0.0
  0
LINE
  5
3B2
330
1B
100
AcDbEntity
 67
     1
  8
0
  6
Continuous
 62
     7
370
    15
100
AcDbLine
 10
1.0484006549
 20
0.4353965401
 30
0.0
 11
0.9984006549
 21
0.4353965401
 31
0.0
  0
LINE
  5
3B3
330
1B
100
AcDbEntity
 67
     1
  8
0
  6
Continuous
 62
     7
370
    15
100
AcDbLine
 10
1.0484006549
 20
0.4353965401
 30
0.0
 11
1.0734006549
 21
-0.0146034599
 31
0.0
  0
LINE
  5
3B4
330
1B
100
AcDbEntity
 67
     1
  8
0
  6
Continuous
 62
     7
370
    15
100
AcDbLine
 10
1.0734006549
 20
-0.0146034599
 30
0.0
 11
1.0984006549
 21
0.4353965401
 31
0.0
  0
LINE
  5
3B5
330
1B
100
AcDbEntity
 67
     1
  8
0
  6
Continuous
 62
     7
370
    15
100
AcDbLine
 10
1.6734006549
 20
0.4353965401
 30
0.0
 11
1.0984006549
 21
0.4353965401
 31
0.0
  0
LINE
  5
3B6
330
1B
100
AcDbEntity
 67
     1
  8
0
  6
Continuous
 62
     7
370
    15
100
AcDbLine
 10
1.6734006549
 20
0.1853965401
 30
0.0
 11
1.6734006549
 21
0.4353965401
 31
0.0
  0
LINE
  5
3B7
330
1B
100
AcDbEntity
 67
     1
  8
0
  6
Continuous
 62
     7
370
    15
100
AcDbLine
 10
1.5552904187
 20
0.1853965401
 30
0.0
 11
1.6734006549
 21
0.1853965401
 31
0.0
  0
LINE
  5
3B8
330
1B
100
AcDbEntity
 67
     1
  8
0
  6
Continuous
 62
     7
370
    15
100
AcDbLine
 10
1.5552904187
 20
0.0103965401
 30
0.0
 11
1.5552904187
 21
0.1853965401
 31
0.0
  0
LINE
  5
3B9
330
1B
100
AcDbEntity
 67
     1
  8
0
  6
Continuous
 62
     7
370
    15
100
AcDbLine
 10
1.4393455368
 20
0.0103965401
 30
0.0
 11
1.5552904187
 21
0.0103965401
 31
0.0
  0
LINE
  5
3BA
330
1B
100
AcDbEntity
 67
     1
  8
0
  6
Continuous
 62
     7
370
    15
100
AcDbLine
 10
1.4393455368
 20
0.1353965401
 30
0.0
 11
1.4393455368
 21
0.0103965401
 31
0.0
  0
LINE
  5
3BB
330
1B
100
AcDbEntity
 67
     1
  8
0
  6
Continuous
 62
     7
370
    15
100
AcDbLine
 10
1.2893455368
 20
0.1353965401
 30
0.0
 11
1.4393455368
 21
0.1353965401
 31
0.0
  0
LINE
  5
3BC
330
1B
100
AcDbEntity
 67
     1
  8
0
  6
Continuous
 62
     7
370
    15
100
AcDbLine
 10
1.2893455368
 20
0.0103965401
 30
0.0
 11
1.2893455368
 21
0.1353965401
 31
0.0
  0
LINE
  5
3BD
330
1B
100
AcDbEntity
 67
     1
  8
0
  6
Continuous
 62
     7
370
    15
100
AcDbLine
 10
1.1734006549
 20
0.0103965401
 30
0.0
 11
1.2893455368
 21
0.0103965401
 31
0.0
  0
LINE
  5
3BE
330
1B
100
AcDbEntity
 67
     1
  8
0
  6
Continuous
 62
     7
370
    15
100
AcDbLine
 10
1.1734006549
 20
-0.1396034599
 30
0.0
 11
1.1734006549
 21
0.0103965401
 31
0.0
  0
LINE
  5
3BF
330
1B
100
AcDbEntity
 67
     1
  8
0
  6
Continuous
 62
     7
370
    15
100
AcDbLine
 10
1.2893455368
 20
-0.1396034599
 30
0.0
 11
1.1734006549
 21
-0.1396034599
 31
0.0
  0
LINE
  5
3C0
330
1B
100
AcDbEntity
 67
     1
  8
0
  6
Continuous
 62
     7
370
    15
100
AcDbLine
 10
1.2893455368
 20
-0.2646034599
 30
0.0
 11
1.2893455368
 21
-0.1396034599
 31
0.0
  0
LINE
  5
3C1
330
1B
100
AcDbEntity
 67
     1
  8
0
  6
Continuous
 62
     7
370
    15
100
AcDbLine
 10
1.4393455368
 20
-0.2646034599
 30
0.0
 11
1.2893455368
 21
-0.2646034599
 31
0.0
  0
LINE
  5
3C2
330
1B
100
AcDbEntity
 67
     1
  8
0
  6
Continuous
 62
     7
370
    15
100
AcDbLine
 10
1.4393455368
 20
-0.1396034599
 30
0.0
 11
1.4393455368
 21
-0.2646034599
 31
0.0
  0
LINE
  5
3C3
330
1B
100
AcDbEntity
 67
     1
  8
0
  6
Continuous
 62
     7
370
    15
100
AcDbLine
 10
1.5552904187
 20
-0.1396034599
 30
0.0
 11
1.4393455368
 21
-0.1396034599
 31
0.0
  0
LINE
  5
3C4
330
1B
100
AcDbEntity
 67
     1
  8
0
  6
Continuous
 62
     7
370
    15
100
AcDbLine
 10
1.5552904187
 20
-0.3146034599
 30
0.0
 11
1.5552904187
 21
-0.1396034599
 31
0.0
  0
LINE
  5
3C5
330
1B
100
AcDbEntity
 67
     1
  8
0
  6
Continuous
 62
     7
370
    15
100
AcDbLine
 10
1.6734006549
 20
-0.3146034599
 30
0.0
 11
1.5552904187
 21
-0.3146034599
 31
0.0
  0
LINE
  5
3C6
330
1B
100
AcDbEntity
 67
     1
  8
0
  6
Continuous
 62
     7
370
    15
100
AcDbLine
 10
1.6734006549
 20
-0.5646034599
 30
0.0
 11
1.6734006549
 21
-0.3146034599
 31
0.0
  0
LINE
  5
3C7
330
1B
100
AcDbEntity
 67
     1
  8
0
  6
Continuous
 62
     7
370
    15
100
AcDbLine
 10
1.0984006549
 20
-0.5646034599
 30
0.0
 11
1.6734006549
 21
-0.5646034599
 31
0.0
  0
LINE
  5
3C8
330
1B
100
AcDbEntity
 67
     1
  8
0
  6
Continuous
 62
     7
370
    15
100
AcDbLine
 10
1.0984006549
 20
-0.5646034599
 30
0.0
 11
1.0734006549
 21
-0.1146034599
 31
0.0
  0
LINE
  5
3C9
330
1B
100
AcDbEntity
 67
     1
  8
0
  6
Continuous
 62
     7
370
    15
100
AcDbLine
 10
1.0734006549
 20
-0.1146034599
 30
0.0
 11
1.0484006549
 21
-0.5646034599
 31
0.0
  0
LINE
  5
3CA
330
1B
100
AcDbEntity
 67
     1
  8
0
  6
Continuous
 62
     7
370
    15
100
AcDbLine
 10
0.9984006549
 20
-0.5646034599
 30
0.0
 11
1.0484006549
 21
-0.5646034599
 31
0.0
  0
LINE
  5
3CB
330
1B
100
AcDbEntity
 67
     1
  8
0
  6
Continuous
 62
     7
370
    15
100
AcDbLine
 10
0.9984006549
 20
-0.5646034599
 30
0.0
 11
0.9734006549
 21
-0.1146034599
 31
0.0
  0
LINE
  5
3CC
330
1B
100
AcDbEntity
 67
     1
  8
0
  6
Continuous
 62
     7
370
    15
100
AcDbLine
 10
0.9734006549
 20
-0.1146034599
 30
0.0
 11
0.9484006549
 21
-0.5646034599
 31
0.0
  0
LINE
  5
3CD
330
1B
100
AcDbEntity
 67
     1
  8
0
  6
Continuous
 62
     7
370
    15
100
AcDbLine
 10
0.8984006549
 20
-0.5646034599
 30
0.0
 11
0.9484006549
 21
-0.5646034599
 31
0.0
  0
LINE
  5
3CE
330
1B
100
AcDbEntity
 67
     1
  8
0
  6
Continuous
 62
     7
370
    15
100
AcDbLine
 10
0.8984006549
 20
-0.5646034599
 30
0.0
 11
0.8734006549
 21
-0.1146034599
 31
0.0
  0
LINE
  5
3CF
330
1B
100
AcDbEntity
 67
     1
  8
0
  6
Continuous
 62
     7
370
    15
100
AcDbLine
 10
0.8734006549
 20
-0.1146034599
 30
0.0
 11
0.8484006549
 21
-0.5646034599
 31
0.0
  0
LINE
  5
3D0
330
1B
100
AcDbEntity
 67
     1
  8
0
  6
Continuous
 62
     7
370
    15
100
AcDbLine
 10
0.7984006549
 20
-0.5646034599
 30
0.0
 11
0.8484006549
 21
-0.5646034599
 31
0.0
  0
LINE
  5
3D1
330
1B
100
AcDbEntity
 67
     1
  8
0
  6
Continuous
 62
     7
370
    15
100
AcDbLine
 10
0.7984006549
 20
-0.5646034599
 30
0.0
 11
0.7734006549
 21
-0.1146034599
 31
0.0
  0
LINE
  5
3D2
330
1B
100
AcDbEntity
 67
     1
  8
0
  6
Continuous
 62
     7
370
    15
100
AcDbLine
 10
0.7734006549
 20
-0.1146034599
 30
0.0
 11
0.7484006549
 21
-0.5646034599
 31
0.0
  0
LINE
  5
3D3
330
1B
100
AcDbEntity
 67
     1
  8
0
  6
Continuous
 62
     7
370
    15
100
AcDbLine
 10
0.6984006549
 20
-0.5646034599
 30
0.0
 11
0.7484006549
 21
-0.5646034599
 31
0.0
  0
LINE
  5
3D4
330
1B
100
AcDbEntity
 67
     1
  8
0
  6
Continuous
 62
     7
370
    15
100
AcDbLine
 10
0.6984006549
 20
-0.5646034599
 30
0.0
 11
0.6734006549
 21
-0.1146034599
 31
0.0
  0
LINE
  5
3D5
330
1B
100
AcDbEntity
 67
     1
  8
0
  6
Continuous
 62
     7
370
    15
100
AcDbLine
 10
0.6734006549
 20
-0.1146034599
 30
0.0
 11
0.6484006549
 21
-0.5646034599
 31
0.0
  0
LINE
  5
3D6
330
1B
100
AcDbEntity
 67
     1
  8
0
  6
Continuous
 62
     7
370
    15
100
AcDbLine
 10
0.5984006549
 20
-0.5646034599
 30
0.0
 11
0.6484006549
 21
-0.5646034599
 31
0.0
  0
LINE
  5
3D7
330
1B
100
AcDbEntity
 67
     1
  8
0
  6
Continuous
 62
     7
370
    15
100
AcDbLine
 10
0.5984006549
 20
-0.5646034599
 30
0.0
 11
0.5734006549
 21
-0.1146034599
 31
0.0
  0
LINE
  5
3D8
330
1B
100
AcDbEntity
 67
     1
  8
0
  6
Continuous
 62
     7
370
    15
100
AcDbLine
 10
0.5734006549
 20
-0.1146034599
 30
0.0
 11
0.5484006549
 21
-0.5646034599
 31
0.0
  0
LINE
  5
3D9
330
1B
100
AcDbEntity
 67
     1
  8
0
  6
Continuous
 62
     7
370
    15
100
AcDbLine
 10
0.4984006549
 20
-0.5646034599
 30
0.0
 11
0.5484006549
 21
-0.5646034599
 31
0.0
  0
LINE
  5
3DA
330
1B
100
AcDbEntity
 67
     1
  8
0
  6
Continuous
 62
     7
370
    15
100
AcDbLine
 10
0.4984006549
 20
-0.5646034599
 30
0.0
 11
0.4734006549
 21
-0.1146034599
 31
0.0
  0
LINE
  5
3DB
330
1B
100
AcDbEntity
 67
     1
  8
0
  6
Continuous
 62
     7
370
    15
100
AcDbLine
 10
0.4734006549
 20
-0.1146034599
 30
0.0
 11
0.4484006549
 21
-0.5646034599
 31
0.0
  0
LINE
  5
3DC
330
1B
100
AcDbEntity
 67
     1
  8
0
  6
Continuous
 62
     7
370
    15
100
AcDbLine
 10
0.3984006549
 20
-0.5646034599
 30
0.0
 11
0.4484006549
 21
-0.5646034599
 31
0.0
  0
LINE
  5
3DD
330
1B
100
AcDbEntity
 67
     1
  8
0
  6
Continuous
 62
     7
370
    15
100
AcDbLine
 10
0.3984006549
 20
-0.5646034599
 30
0.0
 11
0.3734006549
 21
-0.1146034599
 31
0.0
  0
LINE
  5
3DE
330
1B
100
AcDbEntity
 67
     1
  8
0
  6
Continuous
 62
     7
370
    15
100
AcDbLine
 10
0.3734006549
 20
-0.1146034599
 30
0.0
 11
0.3484006549
 21
-0.5646034599
 31
0.0
  0
LINE
  5
3DF
330
1B
100
AcDbEntity
 67
     1
  8
0
  6
Continuous
 62
     7
370
    15
100
AcDbLine
 10
0.2984006549
 20
-0.5646034599
 30
0.0
 11
0.3484006549
 21
-0.5646034599
 31
0.0
  0
LINE
  5
3E0
330
1B
100
AcDbEntity
 67
     1
  8
0
  6
Continuous
 62
     7
370
    15
100
AcDbLine
 10
0.2734006549
 20
-0.1146034599
 30
0.0
 11
0.2484006549
 21
-0.5646034599
 31
0.0
  0
LINE
  5
3E1
330
1B
100
AcDbEntity
 67
     1
  8
0
  6
Continuous
 62
     7
370
    15
100
AcDbLine
 10
0.1984006549
 20
-0.5646034599
 30
0.0
 11
0.2484006549
 21
-0.5646034599
 31
0.0
  0
LINE
  5
3E2
330
1B
100
AcDbEntity
 67
     1
  8
0
  6
Continuous
 62
     7
370
    15
100
AcDbLine
 10
0.1984006549
 20
-0.5646034599
 30
0.0
 11
0.1734006549
 21
-0.1146034599
 31
0.0
  0
LINE
  5
3E3
330
1B
100
AcDbEntity
 67
     1
  8
0
  6
Continuous
 62
     7
370
    15
100
AcDbLine
 10
0.1734006549
 20
-0.1146034599
 30
0.0
 11
0.1484006549
 21
-0.5646034599
 31
0.0
  0
LINE
  5
3E4
330
1B
100
AcDbEntity
 67
     1
  8
0
  6
Continuous
 62
     7
370
    15
100
AcDbLine
 10
0.0984006549
 20
-0.5646034599
 30
0.0
 11
0.1484006549
 21
-0.5646034599
 31
0.0
  0
LINE
  5
3E5
330
1B
100
AcDbEntity
 67
     1
  8
0
  6
Continuous
 62
     7
370
    15
100
AcDbLine
 10
0.0984006549
 20
-0.5646034599
 30
0.0
 11
0.0734006549
 21
-0.1146034599
 31
0.0
  0
LINE
  5
3E6
330
1B
100
AcDbEntity
 67
     1
  8
0
  6
Continuous
 62
     7
370
    15
100
AcDbLine
 10
0.0734006549
 20
-0.1146034599
 30
0.0
 11
0.0484006549
 21
-0.5646034599
 31
0.0
  0
LINE
  5
3E7
330
1B
100
AcDbEntity
 67
     1
  8
0
  6
Continuous
 62
     7
370
    15
100
AcDbLine
 10
-0.0015993451
 20
-0.5646034599
 30
0.0
 11
0.0484006549
 21
-0.5646034599
 31
0.0
  0
LINE
  5
3E8
330
1B
100
AcDbEntity
 67
     1
  8
0
  6
Continuous
 62
     7
370
    15
100
AcDbLine
 10
-0.0015993451
 20
-0.5646034599
 30
0.0
 11
-0.0265993451
 21
-0.1146034599
 31
0.0
  0
LINE
  5
3E9
330
1B
100
AcDbEntity
 67
     1
  8
0
  6
Continuous
 62
     7
370
    15
100
AcDbLine
 10
-0.0265993451
 20
-0.1146034599
 30
0.0
 11
-0.0515993451
 21
-0.5646034599
 31
0.0
  0
LINE
  5
3EA
330
1B
100
AcDbEntity
 67
     1
  8
0
  6
Continuous
 62
     7
370
    15
100
AcDbLine
 10
-0.1015993451
 20
-0.5646034599
 30
0.0
 11
-0.0515993451
 21
-0.5646034599
 31
0.0
  0
LINE
  5
3EB
330
1B
100
AcDbEntity
 67
     1
  8
0
  6
Continuous
 62
     7
370
    15
100
AcDbLine
 10
-0.1015993451
 20
-0.5646034599
 30
0.0
 11
-0.1265993451
 21
-0.1146034599
 31
0.0
  0
LINE
  5
3EC
330
1B
100
AcDbEntity
 67
     1
  8
0
  6
Continuous
 62
     7
370
    15
100
AcDbLine
 10
-0.1265993451
 20
-0.1146034599
 30
0.0
 11
-0.1515993451
 21
-0.5646034599
 31
0.0
  0
LINE
  5
3ED
330
1B
100
AcDbEntity
 67
     1
  8
0
  6
Continuous
 62
     7
370
    15
100
AcDbLine
 10
-0.2015993451
 20
-0.5646034599
 30
0.0
 11
-0.1515993451
 21
-0.5646034599
 31
0.0
  0
LINE
  5
3EE
330
1B
100
AcDbEntity
 67
     1
  8
0
  6
Continuous
 62
     7
370
    15
100
AcDbLine
 10
-0.2015993451
 20
-0.5646034599
 30
0.0
 11
-0.2265993451
 21
-0.1146034599
 31
0.0
  0
LINE
  5
3EF
330
1B
100
AcDbEntity
 67
     1
  8
0
  6
Continuous
 62
     7
370
    15
100
AcDbLine
 10
-0.2265993451
 20
-0.1146034599
 30
0.0
 11
-0.2515993451
 21
-0.5646034599
 31
0.0
  0
LINE
  5
3F0
330
1B
100
AcDbEntity
 67
     1
  8
0
  6
Continuous
 62
     7
370
    15
100
AcDbLine
 10
-0.3015993451
 20
-0.5646034599
 30
0.0
 11
-0.2515993451
 21
-0.5646034599
 31
0.0
  0
LINE
  5
3F1
330
1B
100
AcDbEntity
 67
     1
  8
0
  6
Continuous
 62
     7
370
    15
100
AcDbLine
 10
-0.3015993451
 20
-0.5646034599
 30
0.0
 11
-0.3265993451
 21
-0.1146034599
 31
0.0
  0
LINE
  5
3F2
330
1B
100
AcDbEntity
 67
     1
  8
0
  6
Continuous
 62
     7
370
    15
100
AcDbLine
 10
-0.3265993451
 20
-0.1146034599
 30
0.0
 11
-0.3515993451
 21
-0.5646034599
 31
0.0
  0
LINE
  5
3F3
330
1B
100
AcDbEntity
 67
     1
  8
0
  6
Continuous
 62
     7
370
    15
100
AcDbLine
 10
1.0061979407
 20
-0.1893600322
 30
0.0
 11
1.0234006549
 21
-0.4646034599
 31
0.0
  0
LINE
  5
3F4
330
1B
100
AcDbEntity
 67
     1
  8
0
  6
Continuous
 62
     7
370
    15
100
AcDbLine
 10
1.0234006549
 20
-0.4646034599
 30
0.0
 11
1.0406033692
 21
-0.1893600322
 31
0.0
  0
LINE
  5
3F5
330
1B
100
AcDbEntity
 67
     1
  8
0
  6
Continuous
 62
     7
370
    15
100
AcDbLine
 10
1.0234006549
 20
0.3353965401
 30
0.0
 11
1.0061979407
 21
0.0601531124
 31
0.0
  0
LINE
  5
3F6
330
1B
100
AcDbEntity
 67
     1
  8
0
  6
Continuous
 62
     7
370
    15
100
AcDbLine
 10
0.9061979407
 20
-0.1893600322
 30
0.0
 11
0.9234006549
 21
-0.4646034599
 31
0.0
  0
LINE
  5
3F7
330
1B
100
AcDbEntity
 67
     1
  8
0
  6
Continuous
 62
     7
370
    15
100
AcDbLine
 10
0.9234006549
 20
-0.4646034599
 30
0.0
 11
0.9406033692
 21
-0.1893600322
 31
0.0
  0
LINE
  5
3F8
330
1B
100
AcDbEntity
 67
     1
  8
0
  6
Continuous
 62
     7
370
    15
100
AcDbLine
 10
0.9406033692
 20
0.0601531124
 30
0.0
 11
0.9234006549
 21
0.3353965401
 31
0.0
  0
LINE
  5
3F9
330
1B
100
AcDbEntity
 67
     1
  8
0
  6
Continuous
 62
     7
370
    15
100
AcDbLine
 10
0.9234006549
 20
0.3353965401
 30
0.0
 11
0.9061979407
 21
0.0601531124
 31
0.0
  0
LINE
  5
3FA
330
1B
100
AcDbEntity
 67
     1
  8
0
  6
Continuous
 62
     7
370
    15
100
AcDbLine
 10
0.8061979407
 20
-0.1893600322
 30
0.0
 11
0.8234006549
 21
-0.4646034599
 31
0.0
  0
LINE
  5
3FB
330
1B
100
AcDbEntity
 67
     1
  8
0
  6
Continuous
 62
     7
370
    15
100
AcDbLine
 10
0.8234006549
 20
-0.4646034599
 30
0.0
 11
0.8406033692
 21
-0.1893600322
 31
0.0
  0
LINE
  5
3FC
330
1B
100
AcDbEntity
 67
     1
  8
0
  6
Continuous
 62
     7
370
    15
100
AcDbLine
 10
0.8406033692
 20
0.0601531124
 30
0.0
 11
0.8234006549
 21
0.3353965401
 31
0.0
  0
LINE
  5
3FD
330
1B
100
AcDbEntity
 67
     1
  8
0
  6
Continuous
 62
     7
370
    15
100
AcDbLine
 10
0.8234006549
 20
0.3353965401
 30
0.0
 11
0.8061979407
 21
0.0601531124
 31
0.0
  0
LINE
  5
3FE
330
1B
100
AcDbEntity
 67
     1
  8
0
  6
Continuous
 62
     7
370
    15
100
AcDbLine
 10
0.7061979407
 20
-0.1893600322
 30
0.0
 11
0.7234006549
 21
-0.4646034599
 31
0.0
  0
LINE
  5
3FF
330
1B
100
AcDbEntity
 67
     1
  8
0
  6
Continuous
 62
     7
370
    15
100
AcDbLine
 10
0.7234006549
 20
-0.4646034599
 30
0.0
 11
0.7406033692
 21
-0.1893600322
 31
0.0
  0
LINE
  5
400
330
1B
100
AcDbEntity
 67
     1
  8
0
  6
Continuous
 62
     7
370
    15
100
AcDbLine
 10
0.7406033692
 20
0.0601531124
 30
0.0
 11
0.7234006549
 21
0.3353965401
 31
0.0
  0
LINE
  5
401
330
1B
100
AcDbEntity
 67
     1
  8
0
  6
Continuous
 62
     7
370
    15
100
AcDbLine
 10
0.7234006549
 20
0.3353965401
 30
0.0
 11
0.7061979407
 21
0.0601531124
 31
0.0
  0
LINE
  5
402
330
1B
100
AcDbEntity
 67
     1
  8
0
  6
Continuous
 62
     7
370
    15
100
AcDbLine
 10
0.6061979407
 20
-0.1893600322
 30
0.0
 11
0.6234006549
 21
-0.4646034599
 31
0.0
  0
LINE
  5
403
330
1B
100
AcDbEntity
 67
     1
  8
0
  6
Continuous
 62
     7
370
    15
100
AcDbLine
 10
0.6234006549
 20
-0.4646034599
 30
0.0
 11
0.6406033692
 21
-0.1893600322
 31
0.0
  0
LINE
  5
404
330
1B
100
AcDbEntity
 67
     1
  8
0
  6
Continuous
 62
     7
370
    15
100
AcDbLine
 10
0.6406033692
 20
0.0601531124
 30
0.0
 11
0.6234006549
 21
0.3353965401
 31
0.0
  0
LINE
  5
405
330
1B
100
AcDbEntity
 67
     1
  8
0
  6
Continuous
 62
     7
370
    15
100
AcDbLine
 10
0.6234006549
 20
0.3353965401
 30
0.0
 11
0.6061979407
 21
0.0601531124
 31
0.0
  0
LINE
  5
406
330
1B
100
AcDbEntity
 67
     1
  8
0
  6
Continuous
 62
     7
370
    15
100
AcDbLine
 10
0.5061979407
 20
-0.1893600322
 30
0.0
 11
0.5234006549
 21
-0.4646034599
 31
0.0
  0
LINE
  5
407
330
1B
100
AcDbEntity
 67
     1
  8
0
  6
Continuous
 62
     7
370
    15
100
AcDbLine
 10
0.5234006549
 20
-0.4646034599
 30
0.0
 11
0.5406033692
 21
-0.1893600322
 31
0.0
  0
LINE
  5
408
330
1B
100
AcDbEntity
 67
     1
  8
0
  6
Continuous
 62
     7
370
    15
100
AcDbLine
 10
0.5406033692
 20
0.0601531124
 30
0.0
 11
0.5234006549
 21
0.3353965401
 31
0.0
  0
LINE
  5
409
330
1B
100
AcDbEntity
 67
     1
  8
0
  6
Continuous
 62
     7
370
    15
100
AcDbLine
 10
0.5234006549
 20
0.3353965401
 30
0.0
 11
0.5061979407
 21
0.0601531124
 31
0.0
  0
LINE
  5
40A
330
1B
100
AcDbEntity
 67
     1
  8
0
  6
Continuous
 62
     7
370
    15
100
AcDbLine
 10
0.4061979407
 20
-0.1893600322
 30
0.0
 11
0.4234006549
 21
-0.4646034599
 31
0.0
  0
LINE
  5
40B
330
1B
100
AcDbEntity
 67
     1
  8
0
  6
Continuous
 62
     7
370
    15
100
AcDbLine
 10
0.4234006549
 20
-0.4646034599
 30
0.0
 11
0.4406033692
 21
-0.1893600322
 31
0.0
  0
LINE
  5
40C
330
1B
100
AcDbEntity
 67
     1
  8
0
  6
Continuous
 62
     7
370
    15
100
AcDbLine
 10
0.4406033692
 20
0.0601531124
 30
0.0
 11
0.4234006549
 21
0.3353965401
 31
0.0
  0
LINE
  5
40D
330
1B
100
AcDbEntity
 67
     1
  8
0
  6
Continuous
 62
     7
370
    15
100
AcDbLine
 10
0.4234006549
 20
0.3353965401
 30
0.0
 11
0.4061979407
 21
0.0601531124
 31
0.0
  0
LINE
  5
40E
330
1B
100
AcDbEntity
 67
     1
  8
0
  6
Continuous
 62
     7
370
    15
100
AcDbLine
 10
0.3061979407
 20
-0.1893600322
 30
0.0
 11
0.3234006549
 21
-0.4646034599
 31
0.0
  0
LINE
  5
40F
330
1B
100
AcDbEntity
 67
     1
  8
0
  6
Continuous
 62
     7
370
    15
100
AcDbLine
 10
0.3234006549
 20
-0.4646034599
 30
0.0
 11
0.3406033692
 21
-0.1893600322
 31
0.0
  0
LINE
  5
410
330
1B
100
AcDbEntity
 67
     1
  8
0
  6
Continuous
 62
     7
370
    15
100
AcDbLine
 10
0.3406033692
 20
0.0601531124
 30
0.0
 11
0.3234006549
 21
0.3353965401
 31
0.0
  0
LINE
  5
411
330
1B
100
AcDbEntity
 67
     1
  8
0
  6
Continuous
 62
     7
370
    15
100
AcDbLine
 10
0.3234006549
 20
0.3353965401
 30
0.0
 11
0.3061979407
 21
0.0601531124
 31
0.0
  0
LINE
  5
412
330
1B
100
AcDbEntity
 67
     1
  8
0
  6
Continuous
 62
     7
370
    15
100
AcDbLine
 10
0.2061979407
 20
-0.1893600322
 30
0.0
 11
0.2234006549
 21
-0.4646034599
 31
0.0
  0
LINE
  5
413
330
1B
100
AcDbEntity
 67
     1
  8
0
  6
Continuous
 62
     7
370
    15
100
AcDbLine
 10
0.2234006549
 20
-0.4646034599
 30
0.0
 11
0.2406033692
 21
-0.1893600322
 31
0.0
  0
LINE
  5
414
330
1B
100
AcDbEntity
 67
     1
  8
0
  6
Continuous
 62
     7
370
    15
100
AcDbLine
 10
0.2406033692
 20
0.0601531124
 30
0.0
 11
0.2234006549
 21
0.3353965401
 31
0.0
  0
LINE
  5
415
330
1B
100
AcDbEntity
 67
     1
  8
0
  6
Continuous
 62
     7
370
    15
100
AcDbLine
 10
0.2234006549
 20
0.3353965401
 30
0.0
 11
0.2061979407
 21
0.0601531124
 31
0.0
  0
LINE
  5
416
330
1B
100
AcDbEntity
 67
     1
  8
0
  6
Continuous
 62
     7
370
    15
100
AcDbLine
 10
0.1061979407
 20
-0.1893600322
 30
0.0
 11
0.1234006549
 21
-0.4646034599
 31
0.0
  0
LINE
  5
417
330
1B
100
AcDbEntity
 67
     1
  8
0
  6
Continuous
 62
     7
370
    15
100
AcDbLine
 10
0.1234006549
 20
-0.4646034599
 30
0.0
 11
0.1406033692
 21
-0.1893600322
 31
0.0
  0
LINE
  5
418
330
1B
100
AcDbEntity
 67
     1
  8
0
  6
Continuous
 62
     7
370
    15
100
AcDbLine
 10
0.1406033692
 20
0.0601531124
 30
0.0
 11
0.1234006549
 21
0.3353965401
 31
0.0
  0
LINE
  5
419
330
1B
100
AcDbEntity
 67
     1
  8
0
  6
Continuous
 62
     7
370
    15
100
AcDbLine
 10
0.1234006549
 20
0.3353965401
 30
0.0
 11
0.1061979407
 21
0.0601531124
 31
0.0
  0
LINE
  5
41A
330
1B
100
AcDbEntity
 67
     1
  8
0
  6
Continuous
 62
     7
370
    15
100
AcDbLine
 10
0.0061979407
 20
-0.1893600322
 30
0.0
 11
0.0234006549
 21
-0.4646034599
 31
0.0
  0
LINE
  5
41B
330
1B
100
AcDbEntity
 67
     1
  8
0
  6
Continuous
 62
     7
370
    15
100
AcDbLine
 10
0.0234006549
 20
-0.4646034599
 30
0.0
 11
0.0406033692
 21
-0.1893600322
 31
0.0
  0
LINE
  5
41C
330
1B
100
AcDbEntity
 67
     1
  8
0
  6
Continuous
 62
     7
370
    15
100
AcDbLine
 10
0.0406033692
 20
0.0601531124
 30
0.0
 11
0.0234006549
 21
0.3353965401
 31
0.0
  0
LINE
  5
41D
330
1B
100
AcDbEntity
 67
     1
  8
0
  6
Continuous
 62
     7
370
    15
100
AcDbLine
 10
0.0234006549
 20
0.3353965401
 30
0.0
 11
0.0061979407
 21
0.0601531124
 31
0.0
  0
LINE
  5
41E
330
1B
100
AcDbEntity
 67
     1
  8
0
  6
Continuous
 62
     7
370
    15
100
AcDbLine
 10
-0.0938020593
 20
-0.1893600322
 30
0.0
 11
-0.0765993451
 21
-0.4646034599
 31
0.0
  0
LINE
  5
41F
330
1B
100
AcDbEntity
 67
     1
  8
0
  6
Continuous
 62
     7
370
    15
100
AcDbLine
 10
-0.0765993451
 20
-0.4646034599
 30
0.0
 11
-0.0593966308
 21
-0.1893600322
 31
0.0
  0
LINE
  5
420
330
1B
100
AcDbEntity
 67
     1
  8
0
  6
Continuous
 62
     7
370
    15
100
AcDbLine
 10
-0.0593966308
 20
0.0601531124
 30
0.0
 11
-0.0765993451
 21
0.3353965401
 31
0.0
  0
LINE
  5
421
330
1B
100
AcDbEntity
 67
     1
  8
0
  6
Continuous
 62
     7
370
    15
100
AcDbLine
 10
-0.0765993451
 20
0.3353965401
 30
0.0
 11
-0.0938020593
 21
0.0601531124
 31
0.0
  0
LINE
  5
422
330
1B
100
AcDbEntity
 67
     1
  8
0
  6
Continuous
 62
     7
370
    15
100
AcDbLine
 10
-0.1938020593
 20
-0.1893600322
 30
0.0
 11
-0.1765993451
 21
-0.4646034599
 31
0.0
  0
LINE
  5
423
330
1B
100
AcDbEntity
 67
     1
  8
0
  6
Continuous
 62
     7
370
    15
100
AcDbLine
 10
-0.1765993451
 20
-0.4646034599
 30
0.0
 11
-0.1593966308
 21
-0.1893600322
 31
0.0
  0
LINE
  5
424
330
1B
100
AcDbEntity
 67
     1
  8
0
  6
Continuous
 62
     7
370
    15
100
AcDbLine
 10
-0.1593966308
 20
0.0601531124
 30
0.0
 11
-0.1765993451
 21
0.3353965401
 31
0.0
  0
LINE
  5
425
330
1B
100
AcDbEntity
 67
     1
  8
0
  6
Continuous
 62
     7
370
    15
100
AcDbLine
 10
-0.1765993451
 20
0.3353965401
 30
0.0
 11
-0.1938020593
 21
0.0601531124
 31
0.0
  0
LINE
  5
426
330
1B
100
AcDbEntity
 67
     1
  8
0
  6
Continuous
 62
     7
370
    15
100
AcDbLine
 10
-0.2938020593
 20
-0.1893600322
 30
0.0
 11
-0.2765993451
 21
-0.4646034599
 31
0.0
  0
LINE
  5
427
330
1B
100
AcDbEntity
 67
     1
  8
0
  6
Continuous
 62
     7
370
    15
100
AcDbLine
 10
-0.2765993451
 20
-0.4646034599
 30
0.0
 11
-0.2593966308
 21
-0.1893600322
 31
0.0
  0
LINE
  5
428
330
1B
100
AcDbEntity
 67
     1
  8
0
  6
Continuous
 62
     7
370
    15
100
AcDbLine
 10
-0.2593966308
 20
0.0601531124
 30
0.0
 11
-0.2765993451
 21
0.3353965401
 31
0.0
  0
LINE
  5
429
330
1B
100
AcDbEntity
 67
     1
  8
0
  6
Continuous
 62
     7
370
    15
100
AcDbLine
 10
-0.2765993451
 20
0.3353965401
 30
0.0
 11
-0.2938020593
 21
0.0601531124
 31
0.0
  0
LINE
  5
42A
330
1B
100
AcDbEntity
 67
     1
  8
0
  6
Continuous
 62
     7
370
    15
100
AcDbLine
 10
0.5446791584
 20
0.6456426119
 30
0.0
 11
0.5446791584
 21
0.5275323757
 31
0.0
  0
LINE
  5
42B
330
1B
100
AcDbEntity
 67
     1
  8
0
  6
Continuous
 62
     7
370
    15
100
AcDbLine
 10
1.6696791584
 20
1.128585356
 30
0.0
 11
1.5515689222
 21
1.128585356
 31
0.0
  0
LINE
  5
42C
330
1B
100
AcDbEntity
 67
     1
  8
0
  6
Continuous
 62
     7
370
    15
100
AcDbLine
 10
1.0446791584
 20
0.6456426119
 30
0.0
 11
1.5515689222
 21
0.6456426119
 31
0.0
  0
LINE
  5
42D
330
1B
100
AcDbEntity
 67
     1
  8
0
  6
Continuous
 62
     7
370
    15
100
AcDbLine
 10
1.0446791584
 20
0.5275323757
 30
0.0
 11
1.0446791584
 21
0.6456426119
 31
0.0
  0
LINE
  5
42E
330
1B
100
AcDbEntity
 67
     1
  8
0
  6
Continuous
 62
     7
370
    15
100
AcDbLine
 10
0.5446791584
 20
0.5275323757
 30
0.0
 11
1.0446791584
 21
0.5275323757
 31
0.0
  0
LINE
  5
42F
330
1B
100
AcDbEntity
 67
     1
  8
0
  6
Continuous
 62
     7
370
    15
100
AcDbLine
 10
-0.0803208416
 20
0.6456426119
 30
0.0
 11
0.5446791584
 21
0.6456426119
 31
0.0
  0
LINE
  5
430
330
1B
100
AcDbEntity
 67
     1
  8
0
  6
Continuous
 62
     7
370
    15
100
AcDbLine
 10
1.5515689222
 20
1.128585356
 30
0.0
 11
1.5515689222
 21
1.4094221394
 31
0.0
  0
LINE
  5
431
330
1B
100
AcDbEntity
 67
     1
  8
0
  6
Continuous
 62
     7
370
    15
100
AcDbLine
 10
1.6696791584
 20
0.928585356
 30
0.0
 11
1.6696791584
 21
1.128585356
 31
0.0
  0
LINE
  5
432
330
1B
100
AcDbEntity
 67
     1
  8
0
  6
Continuous
 62
     7
370
    15
100
AcDbLine
 10
1.5515689222
 20
0.928585356
 30
0.0
 11
1.6696791584
 21
0.928585356
 31
0.0
  0
LINE
  5
433
330
1B
100
AcDbEntity
 67
     1
  8
0
  6
Continuous
 62
     7
370
    15
100
AcDbLine
 10
1.5515689222
 20
0.6456426119
 30
0.0
 11
1.5515689222
 21
0.928585356
 31
0.0
  0
ARC
  5
434
330
1B
100
AcDbEntity
 67
     1
  8
0
  6
Continuous
 62
     7
370
    15
100
AcDbCircle
 10
-0.1985522023
 20
-1.1504093864
 30
0.0
 40
0.07
100
AcDbArc
 50
32.4730004485
 51
327.5269995515
  0
ARC
  5
435
330
1B
100
AcDbEntity
 67
     1
  8
0
  6
Continuous
 62
     7
370
    15
100
AcDbCircle
 10
-1.080441966
 20
-1.1504093864
 30
0.0
 40
0.0700000000000004
100
AcDbArc
 50
212.4730004485
 51
147.5269995515
  0
ARC
  5
436
330
1B
100
AcDbEntity
 67
     1
  8
0
  6
Continuous
 62
     7
370
    15
100
AcDbCircle
 10
3.0023030977
 20
-0.0646034599
 30
0.0
 40
1.99999999999989
100
AcDbArc
 50
176.423665625
 51
183.576334375
  0
ARC
  5
437
330
1B
100
AcDbEntity
 67
     1
  8
0
  6
Continuous
 62
     7
370
    15
100
AcDbCircle
 10
-0.9555017878
 20
-0.0646034599
 30
0.0
 40
1.999999999999888
100
AcDbArc
 50
356.423665625
 51
3.576334375
  0
ARC
  5
438
330
1B
100
AcDbEntity
 67
     1
  8
0
  6
Continuous
 62
     7
370
    15
100
AcDbCircle
 10
2.9023030977
 20
-0.0646034599
 30
0.0
 40
1.999999999999916
100
AcDbArc
 50
176.423665625
 51
183.576334375
  0
ARC
  5
439
330
1B
100
AcDbEntity
 67
     1
  8
0
  6
Continuous
 62
     7
370
    15
100
AcDbCircle
 10
-1.0555017878
 20
-0.0646034599
 30
0.0
 40
1.999999999999835
100
AcDbArc
 50
356.423665625
 51
3.576334375
  0
ARC
  5
43A
330
1B
100
AcDbEntity
 67
     1
  8
0
  6
Continuous
 62
     7
370
    15
100
AcDbCircle
 10
2.8023030977
 20
-0.0646034599
 30
0.0
 40
1.999999999999916
100
AcDbArc
 50
176.423665625
 51
183.576334375
  0
ARC
  5
43B
330
1B
100
AcDbEntity
 67
     1
  8
0
  6
Continuous
 62
     7
370
    15
100
AcDbCircle
 10
-1.1555017878
 20
-0.0646034599
 30
0.0
 40
1.999999999999844
100
AcDbArc
 50
356.423665625
 51
3.576334375
  0
ARC
  5
43C
330
1B
100
AcDbEntity
 67
     1
  8
0
  6
Continuous
 62
     7
370
    15
100
AcDbCircle
 10
2.7023030977
 20
-0.0646034599
 30
0.0
 40
1.999999999999846
100
AcDbArc
 50
176.423665625
 51
183.576334375
  0
ARC
  5
43D
330
1B
100
AcDbEntity
 67
     1
  8
0
  6
Continuous
 62
     7
370
    15
100
AcDbCircle
 10
-1.2555017878
 20
-0.0646034599
 30
0.0
 40
1.999999999999809
100
AcDbArc
 50
356.423665625
 51
3.576334375
  0
ARC
  5
43E
330
1B
100
AcDbEntity
 67
     1
  8
0
  6
Continuous
 62
     7
370
    15
100
AcDbCircle
 10
2.6023030977
 20
-0.0646034599
 30
0.0
 40
1.999999999999897
100
AcDbArc
 50
176.423665625
 51
183.576334375
  0
ARC
  5
43F
330
1B
100
AcDbEntity
 67
     1
  8
0
  6
Continuous
 62
     7
370
    15
100
AcDbCircle
 10
-1.3555017878
 20
-0.0646034599
 30
0.0
 40
1.999999999999844
100
AcDbArc
 50
356.423665625
 51
3.576334375
  0
ARC
  5
440
330
1B
100
AcDbEntity
 67
     1
  8
0
  6
Continuous
 62
     7
370
    15
100
AcDbCircle
 10
2.5023030977
 20
-0.0646034599
 30
0.0
 40
1.999999999999871
100
AcDbArc
 50
176.423665625
 51
183.576334375
  0
ARC
  5
441
330
1B
100
AcDbEntity
 67
     1
  8
0
  6
Continuous
 62
     7
370
    15
100
AcDbCircle
 10
-1.4555017878
 20
-0.0646034599
 30
0.0
 40
1.999999999999781
100
AcDbArc
 50
356.423665625
 51
3.576334375
  0
ARC
  5
442
330
1B
100
AcDbEntity
 67
     1
  8
0
  6
Continuous
 62
     7
370
    15
100
AcDbCircle
 10
2.4023030977
 20
-0.0646034599
 30
0.0
 40
1.999999999999854
100
AcDbArc
 50
176.423665625
 51
183.576334375
  0
ARC
  5
443
330
1B
100
AcDbEntity
 67
     1
  8
0
  6
Continuous
 62
     7
370
    15
100
AcDbCircle
 10
-1.5555017878
 20
-0.0646034599
 30
0.0
 40
1.99999999999983
100
AcDbArc
 50
356.423665625
 51
3.576334375
  0
ARC
  5
444
330
1B
100
AcDbEntity
 67
     1
  8
0
  6
Continuous
 62
     7
370
    15
100
AcDbCircle
 10
2.3023030977
 20
-0.0646034599
 30
0.0
 40
1.999999999999866
100
AcDbArc
 50
176.423665625
 51
183.576334375
  0
ARC
  5
445
330
1B
100
AcDbEntity
 67
     1
  8
0
  6
Continuous
 62
     7
370
    15
100
AcDbCircle
 10
-1.6555017878
 20
-0.0646034599
 30
0.0
 40
1.999999999999821
100
AcDbArc
 50
356.423665625
 51
3.576334375
  0
ARC
  5
446
330
1B
100
AcDbEntity
 67
     1
  8
0
  6
Continuous
 62
     7
370
    15
100
AcDbCircle
 10
2.2023030977
 20
-0.0646034599
 30
0.0
 40
1.999999999999851
100
AcDbArc
 50
176.423665625
 51
183.576334375
  0
ARC
  5
447
330
1B
100
AcDbEntity
 67
     1
  8
0
  6
Continuous
 62
     7
370
    15
100
AcDbCircle
 10
-1.7555017878
 20
-0.0646034599
 30
0.0
 40
1.999999999999841
100
AcDbArc
 50
356.423665625
 51
3.576334375
  0
ARC
  5
448
330
1B
100
AcDbEntity
 67
     1
  8
0
  6
Continuous
 62
     7
370
    15
100
AcDbCircle
 10
2.1023030977
 20
-0.0646034599
 30
0.0
 40
1.999999999999851
100
AcDbArc
 50
176.423665625
 51
183.576334375
  0
ARC
  5
449
330
1B
100
AcDbEntity
 67
     1
  8
0
  6
Continuous
 62
     7
370
    15
100
AcDbCircle
 10
-1.8555017878
 20
-0.0646034599
 30
0.0
 40
1.999999999999835
100
AcDbArc
 50
356.423665625
 51
3.576334375
  0
ARC
  5
44A
330
1B
100
AcDbEntity
 67
     1
  8
0
  6
Continuous
 62
     7
370
    15
100
AcDbCircle
 10
2.0023030977
 20
-0.0646034599
 30
0.0
 40
1.999999999999863
100
AcDbArc
 50
176.423665625
 51
183.576334375
  0
ARC
  5
44B
330
1B
100
AcDbEntity
 67
     1
  8
0
  6
Continuous
 62
     7
370
    15
100
AcDbCircle
 10
-1.9555017878
 20
-0.0646034599
 30
0.0
 40
1.99999999999984
100
AcDbArc
 50
356.423665625
 51
3.576334375
  0
ARC
  5
44C
330
1B
100
AcDbEntity
 67
     1
  8
0
  6
Continuous
 62
     7
370
    15
100
AcDbCircle
 10
1.9023030977
 20
-0.0646034599
 30
0.0
 40
1.99999999999986
100
AcDbArc
 50
176.423665625
 51
183.576334375
  0
ARC
  5
44D
330
1B
100
AcDbEntity
 67
     1
  8
0
  6
Continuous
 62
     7
370
    15
100
AcDbCircle
 10
-2.0555017878
 20
-0.0646034599
 30
0.0
 40
1.999999999999834
100
AcDbArc
 50
356.423665625
 51
3.576334375
  0
ARC
  5
44E
330
1B
100
AcDbEntity
 67
     1
  8
0
  6
Continuous
 62
     7
370
    15
100
AcDbCircle
 10
1.8023030977
 20
-0.0646034599
 30
0.0
 40
1.999999999999736
100
AcDbArc
 50
176.423665625
 51
183.576334375
  0
ARC
  5
44F
330
1B
100
AcDbEntity
 67
     1
  8
0
  6
Continuous
 62
     7
370
    15
100
AcDbCircle
 10
-2.1555017878
 20
-0.0646034599
 30
0.0
 40
1.999999999999759
100
AcDbArc
 50
356.423665625
 51
3.576334375
  0
ARC
  5
450
330
1B
100
AcDbEntity
 67
     1
  8
0
  6
Continuous
 62
     7
370
    15
100
AcDbCircle
 10
1.7023030977
 20
-0.0646034599
 30
0.0
 40
1.99999999999975
100
AcDbArc
 50
176.423665625
 51
183.576334375
  0
ARC
  5
451
330
1B
100
AcDbEntity
 67
     1
  8
0
  6
Continuous
 62
     7
370
    15
100
AcDbCircle
 10
-2.2555017878
 20
-0.0646034599
 30
0.0
 40
1.99999999999977
100
AcDbArc
 50
356.423665625
 51
3.576334375
  0
ARC
  5
452
330
1B
100
AcDbEntity
 67
     1
  8
0
  6
Continuous
 62
     7
370
    15
100
AcDbCircle
 10
1.6785933933
 20
-0.9872139998
 30
0.0
 40
2.399999999999966
100
AcDbArc
 50
93.0339034524
 51
137.1284595507
  0
VIEWPORT
  5
453
330
1B
100
AcDbEntity
 67
     1
  8
0
100
AcDbViewport
 10
0.0
 20
0.0
 30
0.0
 40
8.4
 41
6.4
 68
     1
 69
     1
 12
0.2669517854
 22
-0.1224676243
 13
0.0
 23
0.0
 14
0.5
 24
0.5
 15
0.5
 25
0.5
 16
0.0
 26
0.0
 36
1.0
 17
0.0
 27
0.0
 37
0.0
 42
50.0
 43
0.0
 44
0.0
 45
3.1250551181
 50
0.0
 51
0.0
 72
   100
 90
   557152
  1

281
     0
 71
     1
 74
     0
110
0.0
120
0.0
130
0.0
111
1.0
121
0.0
131
0.0
112
0.0
122
1.0
132
0.0
 79
     0
146
0.0
  0
MTEXT
  5
456
330
1B
100
AcDbEntity
 67
     1
  8
0
  6
Continuous
 62
     7
100
AcDbMText
 10
-1.1394970842
 20
-1.6944977972
 30
0.0
 40
0.1903
 41
0.0
 71
     1
 72
     1
  1
SolidWorks Educational Edition.
  7
SLDTEXTSTYLE0
 73
     1
 44
1.0
  0
MTEXT
  5
457
330
1B
100
AcDbEntity
 67
     1
  8
0
  6
Continuous
 62
     7
100
AcDbMText
 10
-1.1394970842
 20
-1.9799477972
 30
0.0
 40
0.1903
 41
0.0
 71
     1
 72
     1
  1
For Instructional Use Only.
  7
SLDTEXTSTYLE0
 73
     1
 44
1.0
  0
ENDSEC
  0
SECTION
  2
OBJECTS
  0
DICTIONARY
  5
C
330
0
100
AcDbDictionary
281
     1
  3
ACAD_GROUP
350
D
  3
ACAD_LAYOUT
350
1A
  3
ACAD_MLINESTYLE
350
17
  3
ACAD_PLOTSETTINGS
350
19
  3
ACAD_PLOTSTYLENAME
350
E
  3
ACAD_SCALELIST
350
47
  0
DICTIONARY
  5
D
102
{ACAD_REACTORS
330
C
102
}
330
C
100
AcDbDictionary
281
     1
  0
DICTIONARY
  5
1A
102
{ACAD_REACTORS
330
C
102
}
330
C
100
AcDbDictionary
281
     1
  3
_Top
350
1E
  3
Layout2
350
26
  3
Model
350
22
  0
DICTIONARY
  5
17
102
{ACAD_REACTORS
330
C
102
}
330
C
100
AcDbDictionary
281
     1
  3
Standard
350
18
  0
DICTIONARY
  5
19
102
{ACAD_REACTORS
330
C
102
}
330
C
100
AcDbDictionary
281
     1
  0
ACDBDICTIONARYWDFLT
  5
E
102
{ACAD_REACTORS
330
C
102
}
330
C
100
AcDbDictionary
281
     1
  3
Normal
350
F
100
AcDbDictionaryWithDefault
340
F
  0
DICTIONARY
  5
47
102
{ACAD_REACTORS
330
C
102
}
330
C
100
AcDbDictionary
281
     1
  3
A0
350
48
  3
A1
350
49
  3
A2
350
4A
  3
A3
350
4B
  3
A4
350
4C
  3
A5
350
4D
  3
A6
350
4E
  3
A7
350
4F
  3
A8
350
50
  3
A9
350
51
  3
B0
350
52
  3
B1
350
53
  3
B2
350
54
  3
B3
350
55
  3
B4
350
56
  3
B5
350
57
  3
B6
350
58
  3
B7
350
59
  3
B8
350
5A
  3
B9
350
5B
  3
C0
350
5C
  3
C1
350
5D
  3
C2
350
5E
  3
C3
350
5F
  3
C4
350
60
  3
C5
350
61
  3
C6
350
62
  3
C7
350
63
  3
C8
350
64
  3
C9
350
65
  3
D0
350
66
  3
D1
350
67
  3
D2
350
68
  0
LAYOUT
  5
1E
102
{ACAD_REACTORS
330
1A
102
}
330
1A
100
AcDbPlotSettings
  1

  2
none_device
  4
Letter_(8.50_x_11.00_Inches)
  6

 40
6.35
 41
6.35
 42
6.35001
 43
6.35001
 44
215.9
 45
279.4
 46
0.0
 47
0.0
 48
0.0
 49
0.0
140
0.0
141
0.0
142
1.0
143
0.3829724598
 70
   688
 72
     0
 73
     1
 74
     1
  7

 75
     0
147
2.6111538165
148
28.9432259374
149
42.0206776581
100
AcDbLayout
  1
_Top
 70
     1
 71
     1
 10
-1.2352403499
 20
-1.7501005031
 11
2.9774567078
 21
1.5051654052
 12
0.0
 22
0.0
 32
0.0
 14
-1.1394970842
 24
-1.6543573881
 34
0.0
 15
1.6734006549
 25
1.4094221394
 35
0.0
146
0.0
 13
0.0
 23
0.0
 33
0.0
 16
1.0
 26
0.0
 36
0.0
 17
0.0
 27
1.0
 37
0.0
 76
     0
330
1B
331
453
  0
LAYOUT
  5
26
102
{ACAD_REACTORS
330
1A
102
}
330
1A
100
AcDbPlotSettings
  1

  2
none_device
  4

  6

 40
0.0
 41
0.0
 42
0.0
 43
0.0
 44
0.0
 45
0.0
 46
0.0
 47
0.0
 48
0.0
 49
0.0
140
0.0
141
0.0
142
1.0
143
1.0
 70
   688
 72
     0
 73
     0
 74
     5
  7

 75
    16
147
1.0
148
0.0
149
0.0
100
AcDbLayout
  1
Layout2
 70
     1
 71
     2
 10
0.0
 20
0.0
 11
0.0
 21
0.0
 12
0.0
 22
0.0
 32
0.0
 14
0.0
 24
0.0
 34
0.0
 15
0.0
 25
0.0
 35
0.0
146
0.0
 13
0.0
 23
0.0
 33
0.0
 16
1.0
 26
0.0
 36
0.0
 17
0.0
 27
1.0
 37
0.0
 76
     0
330
23
  0
LAYOUT
  5
22
102
{ACAD_REACTORS
330
1A
102
}
330
1A
100
AcDbPlotSettings
  1

  2
none_device
  4
ANSI_A_(11.00_x_8.50_Inches)
  6

 40
6.35
 41
19.05
 42
6.35000508
 43
19.05000254
 44
279.4
 45
215.9
 46
114.7264179728
 47
97.4438094897
 48
0.0
 49
0.0
140
0.0
141
0.0
142
2.7466075559
143
1.0
 70
  1696
 72
     0
 73
     0
 74
     0
  7

 75
     0
147
0.5913241897
148
-39.4088153714
149
0.0
100
AcDbLayout
  1
Model
 70
     1
 71
     0
 10
0.0
 20
0.0
 11
12.0
 21
9.0
 12
0.0
 22
0.0
 32
0.0
 14
-1.1394970842
 24
-1.6543573881
 34
0.0
 15
1.6734006549
 25
1.4094221394
 35
0.0
146
0.0
 13
0.0
 23
0.0
 33
0.0
 16
1.0
 26
0.0
 36
0.0
 17
0.0
 27
1.0
 37
0.0
 76
     0
330
1F
331
29
  0
MLINESTYLE
  5
18
102
{ACAD_REACTORS
330
17
102
}
330
17
100
AcDbMlineStyle
  2
Standard
 70
     0
  3

 62
   256
 51
90.0
 52
90.0
 71
     2
 49
0.5
 62
   256
  6
BYLAYER
 49
-0.5
 62
   256
  6
BYLAYER
  0
ACDBPLACEHOLDER
  5
F
102
{ACAD_REACTORS
330
E
102
}
330
E
  0
SCALE
  5
48
102
{ACAD_REACTORS
330
47
102
}
330
47
100
AcDbScale
 70
     0
300
1:1
140
1.0
141
1.0
290
     1
  0
SCALE
  5
49
102
{ACAD_REACTORS
330
47
102
}
330
47
100
AcDbScale
 70
     0
300
1:2
140
1.0
141
2.0
290
     0
  0
SCALE
  5
4A
102
{ACAD_REACTORS
330
47
102
}
330
47
100
AcDbScale
 70
     0
300
1:4
140
1.0
141
4.0
290
     0
  0
SCALE
  5
4B
102
{ACAD_REACTORS
330
47
102
}
330
47
100
AcDbScale
 70
     0
300
1:5
140
1.0
141
5.0
290
     0
  0
SCALE
  5
4C
102
{ACAD_REACTORS
330
47
102
}
330
47
100
AcDbScale
 70
     0
300
1:8
140
1.0
141
8.0
290
     0
  0
SCALE
  5
4D
102
{ACAD_REACTORS
330
47
102
}
330
47
100
AcDbScale
 70
     0
300
1:10
140
1.0
141
10.0
290
     0
  0
SCALE
  5
4E
102
{ACAD_REACTORS
330
47
102
}
330
47
100
AcDbScale
 70
     0
300
1:16
140
1.0
141
16.0
290
     0
  0
SCALE
  5
4F
102
{ACAD_REACTORS
330
47
102
}
330
47
100
AcDbScale
 70
     0
300
1:20
140
1.0
141
20.0
290
     0
  0
SCALE
  5
50
102
{ACAD_REACTORS
330
47
102
}
330
47
100
AcDbScale
 70
     0
300
1:30
140
1.0
141
30.0
290
     0
  0
SCALE
  5
51
102
{ACAD_REACTORS
330
47
102
}
330
47
100
AcDbScale
 70
     0
300
1:40
140
1.0
141
40.0
290
     0
  0
SCALE
  5
52
102
{ACAD_REACTORS
330
47
102
}
330
47
100
AcDbScale
 70
     0
300
1:50
140
1.0
141
50.0
290
     0
  0
SCALE
  5
53
102
{ACAD_REACTORS
330
47
102
}
330
47
100
AcDbScale
 70
     0
300
1:100
140
1.0
141
100.0
290
     0
  0
SCALE
  5
54
102
{ACAD_REACTORS
330
47
102
}
330
47
100
AcDbScale
 70
     0
300
2:1
140
2.0
141
1.0
290
     0
  0
SCALE
  5
55
102
{ACAD_REACTORS
330
47
102
}
330
47
100
AcDbScale
 70
     0
300
4:1
140
4.0
141
1.0
290
     0
  0
SCALE
  5
56
102
{ACAD_REACTORS
330
47
102
}
330
47
100
AcDbScale
 70
     0
300
8:1
140
8.0
141
1.0
290
     0
  0
SCALE
  5
57
102
{ACAD_REACTORS
330
47
102
}
330
47
100
AcDbScale
 70
     0
300
10:1
140
10.0
141
1.0
290
     0
  0
SCALE
  5
58
102
{ACAD_REACTORS
330
47
102
}
330
47
100
AcDbScale
 70
     0
300
100:1
140
100.0
141
1.0
290
     0
  0
SCALE
  5
59
102
{ACAD_REACTORS
330
47
102
}
330
47
100
AcDbScale
 70
     0
300
1/128" = 1'-0"
140
0.0078125
141
12.0
290
     0
  0
SCALE
  5
5A
102
{ACAD_REACTORS
330
47
102
}
330
47
100
AcDbScale
 70
     0
300
1/64" = 1'-0"
140
0.015625
141
12.0
290
     0
  0
SCALE
  5
5B
102
{ACAD_REACTORS
330
47
102
}
330
47
100
AcDbScale
 70
     0
300
1/32" = 1'-0"
140
0.03125
141
12.0
290
     0
  0
SCALE
  5
5C
102
{ACAD_REACTORS
330
47
102
}
330
47
100
AcDbScale
 70
     0
300
1/16" = 1'-0"
140
0.0625
141
12.0
290
     0
  0
SCALE
  5
5D
102
{ACAD_REACTORS
330
47
102
}
330
47
100
AcDbScale
 70
     0
300
3/32" = 1'-0"
140
0.09375
141
12.0
290
     0
  0
SCALE
  5
5E
102
{ACAD_REACTORS
330
47
102
}
330
47
100
AcDbScale
 70
     0
300
1/8" = 1'-0"
140
0.125
141
12.0
290
     0
  0
SCALE
  5
5F
102
{ACAD_REACTORS
330
47
102
}
330
47
100
AcDbScale
 70
     0
300
3/16" = 1'-0"
140
0.1875
141
12.0
290
     0
  0
SCALE
  5
60
102
{ACAD_REACTORS
330
47
102
}
330
47
100
AcDbScale
 70
     0
300
1/4" = 1'-0"
140
0.25
141
12.0
290
     0
  0
SCALE
  5
61
102
{ACAD_REACTORS
330
47
102
}
330
47
100
AcDbScale
 70
     0
300
3/8" = 1'-0"
140
0.375
141
12.0
290
     0
  0
SCALE
  5
62
102
{ACAD_REACTORS
330
47
102
}
330
47
100
AcDbScale
 70
     0
300
1/2" = 1'-0"
140
0.5
141
12.0
290
     0
  0
SCALE
  5
63
102
{ACAD_REACTORS
330
47
102
}
330
47
100
AcDbScale
 70
     0
300
3/4" = 1'-0"
140
0.75
141
12.0
290
     0
  0
SCALE
  5
64
102
{ACAD_REACTORS
330
47
102
}
330
47
100
AcDbScale
 70
     0
300
1" = 1'-0"
140
1.0
141
12.0
290
     0
  0
SCALE
  5
65
102
{ACAD_REACTORS
330
47
102
}
330
47
100
AcDbScale
 70
     0
300
1-1/2" = 1'-0"
140
1.5
141
12.0
290
     0
  0
SCALE
  5
66
102
{ACAD_REACTORS
330
47
102
}
330
47
100
AcDbScale
 70
     0
300
3" = 1'-0"
140
3.0
141
12.0
290
     0
  0
SCALE
  5
67
102
{ACAD_REACTORS
330
47
102
}
330
47
100
AcDbScale
 70
     0
300
6" = 1'-0"
140
6.0
141
12.0
290
     0
  0
SCALE
  5
68
102
{ACAD_REACTORS
330
47
102
}
330
47
100
AcDbScale
 70
     0
300
1'-0" = 1'-0"
140
12.0
141
12.0
290
     0
  0
ENDSEC
  0
EOF
